<?xml version="1.0" encoding="UTF-8"?>
<svg version="1.1" xmlns="http://www.w3.org/2000/svg" width="348" height="350">
<path d="M0 0 C114.84 0 229.68 0 348 0 C348 115.5 348 231 348 350 C233.16 350 118.32 350 0 350 C0 234.5 0 119 0 0 Z " fill="#F8F8F8" transform="translate(0,0)"/>
<path d="M0 0 C114.84 0 229.68 0 348 0 C348 115.5 348 231 348 350 C233.16 350 118.32 350 0 350 C0 234.5 0 119 0 0 Z M102 33 C100.97519531 33.50402344 99.95039062 34.00804688 98.89453125 34.52734375 C69.96571581 49.59704415 46.74520028 74.12908513 32 103 C31.67660645 103.63292969 31.35321289 104.26585938 31.02001953 104.91796875 C19.75620519 127.29564394 14.54753401 150.86187967 14.6875 175.875 C14.68965515 176.57476959 14.6918103 177.27453918 14.69403076 177.99551392 C14.74637 188.61508567 15.27947611 198.68528644 18 209 C18.20399414 209.81436523 18.40798828 210.62873047 18.61816406 211.46777344 C21.6662736 223.50492215 25.5409135 234.84915415 31 246 C31.44400146 246.93054199 31.44400146 246.93054199 31.89697266 247.87988281 C38.94638254 262.52711695 48.79237909 275.27446684 60 287 C60.64582031 287.70898438 61.29164062 288.41796875 61.95703125 289.1484375 C80.95112918 309.26838062 107.29966252 323.36537069 134 330 C134.99128906 330.27457031 135.98257813 330.54914063 137.00390625 330.83203125 C167.76221334 339.14619415 200.33514676 335.85801216 230 325 C231.06992188 324.61070312 232.13984375 324.22140625 233.2421875 323.8203125 C253.90070715 315.70246603 271.10030735 303.30105965 287 288 C287.6909375 287.37222656 288.381875 286.74445313 289.09375 286.09765625 C300.48443852 275.43055655 308.95074442 261.80235289 316 248 C316.32339355 247.36707031 316.64678711 246.73414063 316.97998047 246.08203125 C335.6352127 209.01992113 338.39833219 165.15159708 325.66796875 125.796875 C323.24481818 118.6462192 320.29721876 111.78708401 317 105 C316.47921875 103.9171875 315.9584375 102.834375 315.421875 101.71875 C296.18972393 64.00132751 261.78588522 36.29182977 221.84082031 23.24487305 C181.50836612 10.56544906 139.82485747 14.34624448 102 33 Z " fill="#030303" transform="translate(0,0)"/>
<path d="M0 0 C0.81533807 -0.00382555 1.63067614 -0.00765109 2.47072142 -0.01159257 C5.20049196 -0.02190433 7.93005145 -0.01793386 10.65983582 -0.01396179 C12.61801345 -0.01830933 14.57618939 -0.02349262 16.53436279 -0.02944946 C21.85263522 -0.04284761 27.17083661 -0.04341712 32.48912263 -0.04088616 C36.92990685 -0.0398168 41.37067667 -0.04469904 45.81145781 -0.04949158 C56.28989944 -0.06059003 66.76830522 -0.06102256 77.24674988 -0.05497742 C88.05251812 -0.0489392 98.85815609 -0.06124406 109.6639021 -0.08254749 C118.94388973 -0.10016944 128.22383593 -0.10616382 137.50383967 -0.10290974 C143.04512522 -0.10109737 148.58631789 -0.10372835 154.12758827 -0.11762428 C159.34049539 -0.13020726 164.55319972 -0.12825396 169.76610374 -0.11521339 C171.67685388 -0.11284894 173.5876183 -0.11557761 175.49835205 -0.12383652 C178.11200998 -0.13431695 180.72498914 -0.12619297 183.33862305 -0.11352539 C184.46583754 -0.12458682 184.46583754 -0.12458682 185.61582404 -0.13587171 C192.05487731 -0.07047108 197.46786614 1.3580321 202.60978699 5.44819641 C208.78999503 13.17345646 209.44086104 19.33590851 209.36149597 28.97554016 C209.36960045 30.85996323 209.36960045 30.85996323 209.37786865 32.78245544 C209.38819314 36.20838307 209.38070068 39.63333615 209.36415744 43.0591774 C209.35023907 46.65622031 209.35677471 50.25323585 209.36029053 53.85029602 C209.36298732 59.88919665 209.349563 65.92789792 209.32633972 71.9667511 C209.29973322 78.93326738 209.29798481 85.89945049 209.30972809 92.86600018 C209.32053404 99.58721842 209.31429677 106.30831699 209.30017281 113.02952576 C209.29443736 115.88101556 209.29447633 118.73241707 209.2992382 121.58390808 C209.30492808 125.57140511 209.28562369 129.5584111 209.26383972 133.54585266 C209.27059219 135.30725082 209.27059219 135.30725082 209.27748108 137.10423279 C209.20746127 144.83303825 208.64742664 150.95954419 203.48478699 157.07319641 C196.974683 162.49828307 192.15236099 163.40988104 183.83982849 163.40786743 C183.02534485 163.41154412 182.2108612 163.41522081 181.37169623 163.41900891 C178.63887896 163.4300336 175.90609972 163.43388752 173.17326355 163.43769836 C171.21523417 163.44396388 169.25720597 163.45061076 167.29917908 163.45761108 C160.86626512 163.4786415 154.43335095 163.48901177 148.00041199 163.49897766 C145.78540281 163.50302544 143.57039375 163.50714237 141.35538483 163.51132774 C130.95004005 163.5303763 120.54470236 163.54460866 110.1393435 163.55293971 C98.1291528 163.56271459 86.11914627 163.58904215 74.10902047 163.62944061 C64.8248136 163.65959814 55.54065954 163.67440821 46.25640464 163.67772073 C40.71170362 163.6800714 35.16719944 163.68903453 29.62255096 163.7141819 C24.40552585 163.73746148 19.18882721 163.7416962 13.97176361 163.73142052 C12.05939142 163.73092504 10.14700316 163.73724897 8.23468018 163.75097656 C5.61862366 163.76870189 3.00373807 163.76158652 0.38768005 163.7484436 C-0.36447839 163.75941285 -1.11663684 163.7703821 -1.89158797 163.78168374 C-8.2205761 163.70520824 -13.35531834 161.66387772 -18.16365051 157.51460266 C-18.60966614 156.9564386 -19.05568176 156.39827454 -19.51521301 155.82319641 C-19.97669739 155.26761047 -20.43818176 154.71202454 -20.91365051 154.13960266 C-23.54854048 150.10335401 -24.39077423 146.52522933 -24.40763855 141.73999023 C-24.41616852 140.64242401 -24.42469849 139.54485779 -24.43348694 138.41403198 C-24.43258057 137.21962997 -24.43167419 136.02522797 -24.43074036 134.79463196 C-24.43745758 133.52903442 -24.4441748 132.26343689 -24.45109558 130.95948792 C-24.46873195 127.49446189 -24.47344999 124.02953471 -24.47472715 120.56446815 C-24.47615081 118.3969602 -24.4804245 116.22947721 -24.48572159 114.06197548 C-24.50421502 106.49253881 -24.51239319 98.9231725 -24.51081848 91.35371399 C-24.50961771 84.31054709 -24.53070899 77.26768694 -24.56230581 70.22459763 C-24.58850571 64.16750711 -24.59918421 58.11051654 -24.59790766 52.05336982 C-24.59739906 48.44026225 -24.60302546 44.82742732 -24.62426376 41.21437645 C-24.64732612 37.18102115 -24.63810269 33.14834774 -24.62605286 29.11494446 C-24.63729187 27.92661514 -24.64853088 26.73828583 -24.66011047 25.51394653 C-24.60122928 17.75088815 -23.61275902 12.28481013 -18.39411926 6.23725891 C-17.8359552 5.79124329 -17.27779114 5.34522766 -16.70271301 4.88569641 C-16.14712708 4.42421204 -15.59154114 3.96272766 -15.01911926 3.48725891 C-10.1630862 0.31720822 -5.67812743 -0.02830437 0 0 Z " fill="#050505" transform="translate(84.14021301269531,93.73930358886719)"/>
<path d="M0 0 C114.84 0 229.68 0 348 0 C348 55.11 348 110.22 348 167 C347.67 167 347.34 167 347 167 C346.83564453 165.09541016 346.83564453 165.09541016 346.66796875 163.15234375 C345.1928742 146.81626966 342.28100662 131.54054735 337 116 C336.65453125 114.94554688 336.3090625 113.89109375 335.953125 112.8046875 C321.20209399 71.01009964 287.13291975 37.44612445 247.875 18.375 C230.12555966 10.07136749 212.3731474 5.63329777 193 3 C192.30535645 2.8961499 191.61071289 2.7922998 190.89501953 2.68530273 C176.54191549 0.64751636 161.22472082 1.44193569 147 4 C146.14857422 4.15065918 145.29714844 4.30131836 144.41992188 4.45654297 C109.22007707 10.89418149 79.25166937 26.93873541 53 51 C52.23171875 51.69609375 51.4634375 52.3921875 50.671875 53.109375 C22.29935476 80.09786987 3.50665921 122.14678221 1 161 C0.67 161 0.34 161 0 161 C0 107.87 0 54.74 0 0 Z " fill="#F3F3F3" transform="translate(0,0)"/>
<path d="M0 0 C0.33 0 0.66 0 1 0 C1.08975098 0.64735107 1.17950195 1.29470215 1.27197266 1.96166992 C4.25202318 23.0057253 8.57439584 42.85542448 18 62 C18.50853516 63.04365723 18.50853516 63.04365723 19.02734375 64.10839844 C39.24506514 105.15481632 75.6942053 136.6732801 119.01171875 151.46484375 C133.42242645 156.07708192 148.23858078 159.07670849 163.3828125 159.23828125 C164.53530235 159.25317596 164.53530235 159.25317596 165.71107483 159.26837158 C214.74790505 159.77122156 257.47848207 145.37064187 294 112 C294.81984375 111.25234375 295.6396875 110.5046875 296.484375 109.734375 C303.0668498 103.43200551 308.58771765 96.30541137 314 89 C314.41894531 88.44135254 314.83789062 87.88270508 315.26953125 87.30712891 C328.09501336 69.97745963 336.77865241 49.83235727 342 29 C342.46986328 27.21916016 342.46986328 27.21916016 342.94921875 25.40234375 C344.95511775 17.34939313 346.03222539 9.23177699 347 1 C347.33 1 347.66 1 348 1 C348 53.8 348 106.6 348 161 C233.16 161 118.32 161 0 161 C0 107.87 0 54.74 0 0 Z " fill="#F1F1F1" transform="translate(0,189)"/>
<path d="M0 0 C60.06 0 120.12 0 182 0 C179.525 2.475 179.525 2.475 177 5 C176.28199219 5.72960937 175.56398438 6.45921875 174.82421875 7.2109375 C170.81789313 11.26853237 166.74814367 15.15134273 162.421875 18.86328125 C159.09300012 21.80020796 155.86291867 24.83847531 152.625 27.875 C147.61366538 32.57185691 142.56935852 37.2222761 137.44921875 41.80078125 C134.65770517 44.30735565 131.88892475 46.83811351 129.125 49.375 C128.62347412 49.83527588 128.12194824 50.29555176 127.60522461 50.76977539 C126.06982421 52.17949633 124.53483507 53.58966359 123 55 C119.96530717 57.7885327 116.92960466 60.57587582 113.88671875 63.35546875 C112.00610127 65.07830777 110.13326748 66.80969433 108.26953125 68.55078125 C97.70809961 78.31331489 97.70809961 78.31331489 90.625 79.625 C82.10028392 78.15522137 75.56165881 71.02564483 69.5625 65.1875 C68.06975759 63.75833376 66.57627293 62.32994238 65.08203125 60.90234375 C64.3751416 60.22413574 63.66825195 59.54592773 62.93994141 58.84716797 C59.8398821 55.89536219 56.64847467 53.05068151 53.453125 50.203125 C50.44117929 47.49812917 47.47012077 44.75074659 44.5 42 C40.69024144 38.47293657 36.86662305 34.96489598 33 31.5 C29.1779529 28.0737636 25.39374295 24.60956086 21.625 21.125 C21.08182129 20.62307129 20.53864258 20.12114258 19.97900391 19.60400391 C17.75131225 17.54498692 15.52403549 15.48553001 13.29882812 13.42382812 C11.65932066 11.90562526 10.01739125 10.39008193 8.375 8.875 C7.41335937 7.98554687 6.45171875 7.09609375 5.4609375 6.1796875 C3.00604016 3.90548919 3.00604016 3.90548919 0 2 C0 1.34 0 0.68 0 0 Z " fill="#FFFFFF" transform="translate(86,109)"/>
<path d="M0 0 C3.9516498 2.89445518 7.79541666 5.77608194 11.375 9.125 C17.75167774 14.60721163 24.93211142 16.66588581 33.26171875 16.32421875 C45.66650387 14.85546388 53.09115371 8.2398025 62 0 C66.65060081 2.79036049 70.17842776 6.07136488 73.95703125 9.94921875 C75.76808204 11.76719517 77.61504344 13.45635501 79.5625 15.125 C83.60354396 18.6001384 87.48797237 22.22997941 91.375 25.875 C96.34864001 30.53683409 101.35842877 35.14817103 106.4375 39.6953125 C109.68213803 42.61350829 112.90818844 45.55118356 116.125 48.5 C116.70652832 49.02932129 117.28805664 49.55864258 117.88720703 50.10400391 C119.2774428 51.38198201 120.64149582 52.68834079 122 54 C122 54.33 122 54.66 122 55 C62.27 55 2.54 55 -59 55 C-55.14190432 50.49888837 -51.92296535 46.94457515 -47.52734375 43.20703125 C-44.15125525 40.25882414 -40.89264579 37.19239557 -37.625 34.125 C-32.64348666 29.45525152 -27.62793879 24.83380176 -22.53515625 20.28515625 C-19.4339009 17.48972577 -16.37368562 14.65164647 -13.3125 11.8125 C-8.95515468 7.77386119 -4.55656174 3.81479588 0 0 Z " fill="#EEEEEE" transform="translate(145,187)"/>
<path d="M0 0 C7.86903925 6.74489079 15.62328357 13.55007489 23.22119141 20.59619141 C26.11276689 23.27326578 29.01845764 25.92273457 32 28.5 C35.57352691 31.58898089 39.0369453 34.78858936 42.5 38 C50.86591567 45.97492038 50.86591567 45.97492038 60 53 C58.54068493 56.46395315 56.71176736 58.3748033 53.875 60.8125 C49.27063945 64.85373732 44.77279299 68.98774442 40.3125 73.1875 C38.9271269 74.48962969 37.54170982 75.79171258 36.15625 77.09375 C35.4653125 77.7434375 34.774375 78.393125 34.0625 79.0625 C28.39007611 84.39114063 22.69611969 89.69671615 17 95 C16.38898438 95.56976563 15.77796875 96.13953125 15.1484375 96.7265625 C13.37172758 98.38230494 11.59250859 100.03530511 9.8125 101.6875 C9.28374268 102.18080811 8.75498535 102.67411621 8.21020508 103.18237305 C5.55679226 105.63926869 2.90376115 107.82217914 0 110 C0 73.7 0 37.4 0 0 Z " fill="#FEFEFE" transform="translate(75,122)"/>
<path d="M0 0 C0 35.64 0 71.28 0 108 C-3.89135165 106.05432417 -5.78237226 104.39826579 -8.75 101.3125 C-12.4148514 97.566925 -16.15774778 94.04938216 -20.13671875 90.64453125 C-22.58305931 88.48539209 -24.84425414 86.16832989 -27.12841797 83.84033203 C-28.92158927 82.0771015 -30.7679496 80.43061259 -32.67578125 78.79296875 C-37.90168717 74.25021923 -42.89528731 69.47210101 -47.90820312 64.69726562 C-51.49409069 61.29891771 -55.06721178 58.00195077 -59 55 C-58.42561229 51.49570804 -57.28002465 49.95402496 -54.68359375 47.57421875 C-54.00103516 46.94193359 -53.31847656 46.30964844 -52.61523438 45.65820312 C-51.89658203 45.00787109 -51.17792969 44.35753906 -50.4375 43.6875 C-49.74591797 43.04876953 -49.05433594 42.41003906 -48.34179688 41.75195312 C-44.23595006 37.9751863 -40.0576153 34.28686548 -35.85083008 30.62329102 C-33.23695796 28.33076553 -30.68061647 25.98239691 -28.125 23.625 C-23.596958 19.45816932 -19.04668747 15.31827374 -14.4609375 11.21484375 C-12.70574898 9.63517408 -10.9621699 8.04256519 -9.2265625 6.44140625 C-8.32679688 5.61511719 -7.42703125 4.78882812 -6.5 3.9375 C-5.6853125 3.18339844 -4.870625 2.42929688 -4.03125 1.65234375 C-2 0 -2 0 0 0 Z " fill="#FDFDFD" transform="translate(278,123)"/>
<path d="M0 0 C3.9516498 2.89445518 7.79541666 5.77608194 11.375 9.125 C17.75167774 14.60721163 24.93211142 16.66588581 33.26171875 16.32421875 C45.66650387 14.85546388 53.09115371 8.2398025 62 0 C66.65060081 2.79036049 70.17842776 6.07136488 73.95703125 9.94921875 C75.76808204 11.76719517 77.61504344 13.45635501 79.5625 15.125 C83.60354396 18.6001384 87.48797237 22.22997941 91.375 25.875 C96.34801519 30.53624844 101.35475855 35.14956465 106.4375 39.69140625 C111.67307964 44.40821656 116.83034573 49.21118233 122 54 C118.69687244 55.03647521 116.0113553 54.98440578 112.578125 54.66015625 C111.55332031 54.56669922 110.52851563 54.47324219 109.47265625 54.37695312 C108.40917969 54.27318359 107.34570312 54.16941406 106.25 54.0625 C105.17105469 53.96259766 104.09210938 53.86269531 102.98046875 53.75976562 C100.31974626 53.51253035 97.65979161 53.25705654 95 53 C95 48.05 95 43.1 95 38 C90.05 38 85.1 38 80 38 C80 42.95 80 47.9 80 53 C75.05 53 70.1 53 65 53 C65 48.05 65 43.1 65 38 C60.05 38 55.1 38 50 38 C50 42.95 50 47.9 50 53 C45.05 53 40.1 53 35 53 C35 48.05 35 43.1 35 38 C30.05 38 25.1 38 20 38 C20 33.05 20 28.1 20 23 C15.05 23 10.1 23 5 23 C5 18.05 5 13.1 5 8 C-2.63911191 7.86792344 -2.63911191 7.86792344 -9 11 C-9.46396693 13.89223503 -9.46396693 13.89223503 -9.625 17.125 C-9.74875 19.06375 -9.8725 21.0025 -10 23 C-13.96 23 -17.92 23 -22 23 C-22 20 -22 20 -20.62646484 18.36181641 C-19.99434082 17.78093262 -19.3622168 17.20004883 -18.7109375 16.6015625 C-18.01613281 15.95703125 -17.32132812 15.3125 -16.60546875 14.6484375 C-15.86941406 13.98070312 -15.13335937 13.31296875 -14.375 12.625 C-13.66214844 11.965 -12.94929687 11.305 -12.21484375 10.625 C-8.23733537 6.96131339 -4.18748068 3.42131702 0 0 Z " fill="#EDEDED" transform="translate(145,187)"/>
<path d="M0 0 C6.27 0 12.54 0 19 0 C19 3.63 19 7.26 19 11 C23.95 11 28.9 11 34 11 C34 15.95 34 20.9 34 26 C38.95 26 43.9 26 49 26 C49 30.95 49 35.9 49 41 C53.95 41 58.9 41 64 41 C64 45.95 64 50.9 64 56 C68.95 56 73.9 56 79 56 C79 60.95 79 65.9 79 71 C83.95 71 88.9 71 94 71 C94 66.05 94 61.1 94 56 C98.95 56 103.9 56 109 56 C109 51.05 109 46.1 109 41 C113.95 41 118.9 41 124 41 C124 36.05 124 31.1 124 26 C128.95 26 133.9 26 139 26 C139 21.05 139 16.1 139 11 C143.95 11 148.9 11 154 11 C154 7.7 154 4.4 154 1 C163.35927791 0.27507668 172.60644064 -0.14256667 182 0 C180.89388002 1.10611998 179.7873709 2.2118519 178.6796875 3.31640625 C177.42982266 4.56917776 176.18597249 5.82795574 174.9453125 7.08984375 C170.89730107 11.18687954 166.79174281 15.11393467 162.421875 18.86328125 C159.09300012 21.80020796 155.86291867 24.83847531 152.625 27.875 C147.61366538 32.57185691 142.56935852 37.2222761 137.44921875 41.80078125 C134.65770517 44.30735565 131.88892475 46.83811351 129.125 49.375 C128.62347412 49.83527588 128.12194824 50.29555176 127.60522461 50.76977539 C126.06982421 52.17949633 124.53483507 53.58966359 123 55 C119.96530717 57.7885327 116.92960466 60.57587582 113.88671875 63.35546875 C112.00610127 65.07830777 110.13326748 66.80969433 108.26953125 68.55078125 C97.70809961 78.31331489 97.70809961 78.31331489 90.625 79.625 C82.10028392 78.15522137 75.56165881 71.02564483 69.5625 65.1875 C68.06975759 63.75833376 66.57627293 62.32994238 65.08203125 60.90234375 C64.3751416 60.22413574 63.66825195 59.54592773 62.93994141 58.84716797 C59.8398821 55.89536219 56.64847467 53.05068151 53.453125 50.203125 C50.44117929 47.49812917 47.47012077 44.75074659 44.5 42 C40.69024144 38.47293657 36.86662305 34.96489598 33 31.5 C29.1779529 28.0737636 25.39374295 24.60956086 21.625 21.125 C21.08182129 20.62307129 20.53864258 20.12114258 19.97900391 19.60400391 C17.75131225 17.54498692 15.52403549 15.48553001 13.29882812 13.42382812 C11.65932066 11.90562526 10.01739125 10.39008193 8.375 8.875 C7.41335937 7.98554687 6.45171875 7.09609375 5.4609375 6.1796875 C3.00604016 3.90548919 3.00604016 3.90548919 0 2 C0 1.34 0 0.68 0 0 Z " fill="#EEEEEE" transform="translate(86,109)"/>
<path d="M0 0 C2.97 0.33 5.94 0.66 9 1 C9 5.95 9 10.9 9 16 C13.95 16 18.9 16 24 16 C24 20.95 24 25.9 24 31 C19.05 31 14.1 31 9 31 C9 35.95 9 40.9 9 46 C13.95 46 18.9 46 24 46 C24 50.95 24 55.9 24 61 C28.95 61 33.9 61 39 61 C39 65.95 39 70.9 39 76 C34.05 76 29.1 76 24 76 C24 80.95 24 85.9 24 91 C19.05 91 14.1 91 9 91 C9 95.95 9 100.9 9 106 C13.95 106 18.9 106 24 106 C24 110.95 24 115.9 24 121 C19.05 121 14.1 121 9 121 C9 125.95 9 130.9 9 136 C7.02 136 5.04 136 3 136 C2.505 136.99 2.505 136.99 2 138 C1.99576806 137.32523809 1.99153612 136.65047619 1.98717594 135.95526695 C1.88382939 119.52976656 1.77518567 103.1043106 1.66066074 86.67888451 C1.60540464 78.73564477 1.55193527 70.79240053 1.50268555 62.84912109 C1.45975032 55.92501385 1.41344902 49.00093866 1.36312145 42.07688105 C1.33659561 38.41134515 1.3117447 34.74581529 1.29092598 31.08024216 C1.2676108 26.98622676 1.23678006 22.89230078 1.20532227 18.79833984 C1.1995668 17.58561401 1.19381134 16.37288818 1.18788147 15.12341309 C1.17809265 14.00449677 1.16830383 12.88558044 1.15821838 11.73275757 C1.15176583 10.76487494 1.14531328 9.7969923 1.1386652 8.79977989 C0.9903278 5.80470932 0.54662288 2.94630006 0 0 Z " fill="#FEFEFE" transform="translate(291,104)"/>
<path d="M0 0 C4.98749299 -0.68975967 8.18786231 -1.11213849 13 0 C16.64061341 3.28286527 19.09502098 7.05357985 21.74658203 11.14794922 C23.8073443 14.19293218 26.16882908 16.96380182 28.5625 19.75 C29.02760986 20.29406494 29.49271973 20.83812988 29.97192383 21.39868164 C57.17770745 52.95126299 98.46265748 74.37100087 140 78 C142.79462895 78.15044475 145.58450367 78.20858887 148.3828125 78.23828125 C149.15204544 78.24784851 149.92127838 78.25741577 150.71382141 78.26727295 C153.18425631 78.29171315 155.65445961 78.30437963 158.125 78.3125 C158.96749298 78.31611542 159.80998596 78.31973083 160.67800903 78.32345581 C173.74087268 78.3459622 186.10540473 77.32786231 198.88623047 74.46533203 C201.94429861 73.79211906 204.87422217 73.25409549 208 73 C210 75 210 75 210 80 C175.35 80 140.7 80 105 80 C105 78.35 105 76.7 105 75 C90.15 75 75.3 75 60 75 C60 70.05 60 65.1 60 60 C55.05 60 50.1 60 45 60 C45 55.05 45 50.1 45 45 C40.05 45 35.1 45 30 45 C30 40.05 30 35.1 30 30 C25.05 30 20.1 30 15 30 C15 25.05 15 20.1 15 15 C10.05 15 5.1 15 0 15 C0 10.05 0 5.1 0 0 Z " fill="#F1F1F1" transform="translate(15,270)"/>
<path d="M0 0 C4.95 0 9.9 0 15 0 C15 4.95 15 9.9 15 15 C19.95 15 24.9 15 30 15 C30 10.05 30 5.1 30 0 C34.95 0 39.9 0 45 0 C45 4.95 45 9.9 45 15 C49.95 15 54.9 15 60 15 C60 10.05 60 5.1 60 0 C64.95 0 69.9 0 75 0 C75 4.95 75 9.9 75 15 C89.85 15 104.7 15 120 15 C120 16.65 120 18.3 120 20 C80.4 20 40.8 20 0 20 C0 13.4 0 6.8 0 0 Z " fill="#FFFFFF" transform="translate(0,330)"/>
<path d="M0 0 C4.95 0 9.9 0 15 0 C15 4.95 15 9.9 15 15 C19.95 15 24.9 15 30 15 C30 10.05 30 5.1 30 0 C34.95 0 39.9 0 45 0 C45 4.95 45 9.9 45 15 C49.95 15 54.9 15 60 15 C60 10.05 60 5.1 60 0 C64.95 0 69.9 0 75 0 C75 4.95 75 9.9 75 15 C79.95 15 84.9 15 90 15 C90 10.05 90 5.1 90 0 C94.95 0 99.9 0 105 0 C105 4.95 105 9.9 105 15 C107.31 14.979375 109.62 14.95875 112 14.9375 C117.41686178 14.91350828 122.64920221 15.12640036 128 16 C128 16.33 128 16.66 128 17 C70.25 17 12.5 17 -47 17 C-45 15 -45 15 -43.05111694 14.75949097 C-42.256138 14.76393219 -41.46115906 14.76837341 -40.64208984 14.77294922 C-39.29091568 14.77317581 -39.29091568 14.77317581 -37.91244507 14.77340698 C-36.93844757 14.78372955 -35.96445007 14.79405212 -34.9609375 14.8046875 C-33.96494537 14.8075174 -32.96895325 14.81034729 -31.94277954 14.81326294 C-28.75339882 14.8244816 -25.56429622 14.84958919 -22.375 14.875 C-20.21614988 14.88502762 -18.05729537 14.89415385 -15.8984375 14.90234375 C-10.59885074 14.92442644 -5.29947256 14.95896775 0 15 C0 10.05 0 5.1 0 0 Z " fill="#FEFEFE" transform="translate(135,225)"/>
<path d="M0 0 C1.5778125 1.423125 1.5778125 1.423125 3.1875 2.875 C5.34163092 4.73558201 6.81929721 5.93223645 9.5 6.9375 C12.79413984 8.33750943 14.6457775 10.49014036 17.09765625 13.0546875 C21.05627266 17.10271824 25.28859101 20.85906068 30 24 C28.54068493 27.46395315 26.71176736 29.3748033 23.875 31.8125 C19.27063945 35.85373732 14.77279299 39.98774442 10.3125 44.1875 C8.9271269 45.48962969 7.54170982 46.79171258 6.15625 48.09375 C5.4653125 48.7434375 4.774375 49.393125 4.0625 50.0625 C-1.60992389 55.39114063 -7.30388031 60.69671615 -13 66 C-13.61101562 66.56976563 -14.22203125 67.13953125 -14.8515625 67.7265625 C-16.62827242 69.38230494 -18.40749141 71.03530511 -20.1875 72.6875 C-20.71625732 73.18080811 -21.24501465 73.67411621 -21.78979492 74.18237305 C-24.44320774 76.63926869 -27.09623885 78.82217914 -30 81 C-29.67 73.74 -29.34 66.48 -29 59 C-24.38 59 -19.76 59 -15 59 C-15 54.05 -15 49.1 -15 44 C-10.05 44 -5.1 44 0 44 C0 39.05 0 34.1 0 29 C4.95 29 9.9 29 15 29 C15 24.05 15 19.1 15 14 C10.05 14 5.1 14 0 14 C0 9.38 0 4.76 0 0 Z " fill="#ECECEC" transform="translate(105,151)"/>
<path d="M0 0 C5.94 0 11.88 0 18 0 C18 39.6 18 79.2 18 120 C17.01 120 16.02 120 15 120 C15 105.15 15 90.3 15 75 C10.05 75 5.1 75 0 75 C0 70.05 0 65.1 0 60 C4.95 60 9.9 60 15 60 C15 55.05 15 50.1 15 45 C10.05 45 5.1 45 0 45 C0 40.05 0 35.1 0 30 C4.95 30 9.9 30 15 30 C15 25.05 15 20.1 15 15 C10.05 15 5.1 15 0 15 C0 10.05 0 5.1 0 0 Z " fill="#FFFFFF" transform="translate(330,0)"/>
<path d="M0 0 C5.63492063 1.12698413 5.63492063 1.12698413 8.6015625 2.78515625 C9.25084717 3.14657715 9.90013184 3.50799805 10.5690918 3.88037109 C11.58676636 4.4655249 11.58676636 4.4655249 12.625 5.0625 C13.69004761 5.67085693 13.69004761 5.67085693 14.77661133 6.29150391 C33.57645077 17.19902819 49.56924035 32.0131054 63 49 C62.01 49.495 62.01 49.495 61 50 C61 52.97 61 55.94 61 59 C56.05 59 51.1 59 46 59 C46 54.05 46 49.1 46 44 C41.05 44 36.1 44 31 44 C31 39.05 31 34.1 31 29 C26.05 29 21.1 29 16 29 C16 24.05 16 19.1 16 14 C11.05 14 6.1 14 1 14 C0.67 9.38 0.34 4.76 0 0 Z " fill="#FCFCFC" transform="translate(239,31)"/>
<path d="M0 0 C4.95 0 9.9 0 15 0 C15 4.95 15 9.9 15 15 C19.95 15 24.9 15 30 15 C30 19.95 30 24.9 30 30 C25.05 30 20.1 30 15 30 C15 34.29 15 38.58 15 43 C10.79625668 43 9.1183051 40.64332811 6.25 37.875 C5.68796875 37.34455078 5.1259375 36.81410156 4.546875 36.26757812 C3.33383659 35.1223741 2.12365709 33.97413598 0.91601562 32.82324219 C-1.71881297 30.31599194 -4.3719052 27.82858575 -7.02832031 25.34423828 C-8.31645424 24.13936412 -9.60236367 22.93210613 -10.88574219 21.72216797 C-14.1503142 18.65842464 -17.45310354 15.74078363 -21 13 C-20.52797514 8.75177626 -18.03344482 6.80010291 -15 4 C-14.34 4.33 -13.68 4.66 -13 5 C-13.33 5.33 -13.66 5.66 -14 6 C-14.23192865 7.51469448 -14.41215238 9.03754562 -14.5625 10.5625 C-14.706875 12.026875 -14.85125 13.49125 -15 15 C-10.05 15 -5.1 15 0 15 C0 10.05 0 5.1 0 0 Z " fill="#F5F5F5" transform="translate(240,165)"/>
<path d="M0 0 C0.66 0.33 1.32 0.66 2 1 C2 4.96 2 8.92 2 13 C6.95 13 11.9 13 17 13 C17 17.95 17 22.9 17 28 C5.41132145 29.03010476 -6.11354538 29.0716597 -17.73876953 28.96289062 C-19.00446777 28.95451172 -20.27016602 28.94613281 -21.57421875 28.9375 C-22.71463623 28.92589844 -23.85505371 28.91429687 -25.0300293 28.90234375 C-27.55741357 28.98544722 -29.59956868 29.25497534 -32 30 C-28.44408089 25.64399909 -24.8365447 21.8664562 -20.5546875 18.234375 C-16.32792211 14.53757102 -12.2696663 10.65810803 -8.19165039 6.79858398 C-7.25180298 5.91408569 -7.25180298 5.91408569 -6.29296875 5.01171875 C-5.7311792 4.48022217 -5.16938965 3.94872559 -4.59057617 3.40112305 C-3 2 -3 2 0 0 Z " fill="#FDFDFD" transform="translate(118,212)"/>
<path d="M0 0 C20.93446602 17.93446602 20.93446602 17.93446602 30 27 C29 28 29 28 25.83984375 28.09765625 C22.2265625 28.06510417 18.61328125 28.03255208 15 28 C15 32.95 15 37.9 15 43 C10.38 43 5.76 43 1 43 C-0.24596833 28.67136417 -0.09780458 14.37426453 0 0 Z " fill="#FDFDFD" transform="translate(75,122)"/>
<path d="M0 0 C4.95 0 9.9 0 15 0 C15.495 7.425 15.495 7.425 16 15 C14.5975 15.73863281 13.195 16.47726563 11.75 17.23828125 C-1.21346536 24.14059312 -14.12489749 31.19952691 -25.3125 40.81640625 C-28 43 -28 43 -30 43 C-30 38.71 -30 34.42 -30 30 C-25.05 30 -20.1 30 -15 30 C-15 25.05 -15 20.1 -15 15 C-10.05 15 -5.1 15 0 15 C0 10.05 0 5.1 0 0 Z " fill="#FCFCFC" transform="translate(90,0)"/>
<path d="M0 0 C4.95 0 9.9 0 15 0 C16.74930723 8.83400153 16.74930723 8.83400153 16 14 C12.95933446 17.96459767 9.51860867 20.74973072 5.52514648 23.69873047 C3.88491846 25.09818867 2.80164172 26.56533078 1.55859375 28.3203125 C-1 31 -1 31 -4.55078125 31.3671875 C-8.03385417 30.91145833 -11.51692708 30.45572917 -15 30 C-15 25.05 -15 20.1 -15 15 C-10.05 15 -5.1 15 0 15 C0 10.05 0 5.1 0 0 Z " fill="#EDEDED" transform="translate(45,30)"/>
<path d="M0 0 C0.66 0.33 1.32 0.66 2 1 C1.5155542 1.39421143 1.0311084 1.78842285 0.53198242 2.19458008 C-1.44186491 4.52073163 -1.42012916 5.8642623 -1.51171875 8.88671875 C-1.54716797 9.82451172 -1.58261719 10.76230469 -1.61914062 11.72851562 C-1.64169922 12.70498047 -1.66425781 13.68144531 -1.6875 14.6875 C-1.72166016 15.67556641 -1.75582031 16.66363281 -1.79101562 17.68164062 C-1.87349569 20.12069399 -1.93842433 22.56032939 -2 25 C-6.95 25 -11.9 25 -17 25 C-17 29.95 -17 34.9 -17 40 C-21.95 40 -26.9 40 -32 40 C-32.66235261 36.38716757 -32.88400687 34.50639598 -32 31 C-27.32971101 24.48684022 -21.30937032 19.00310154 -15.1875 13.86328125 C-12.24472648 11.3566688 -9.40691593 8.74213104 -6.5625 6.125 C-6.02955322 5.63572021 -5.49660645 5.14644043 -4.94750977 4.64233398 C-2.44099188 2.35562731 -2.44099188 2.35562731 0 0 Z " fill="#FDFDFD" transform="translate(257,140)"/>
<path d="M0 0 C4.95 0 9.9 0 15 0 C13.19871177 5.40386468 11.6465658 7.99460231 7.875 11.875 C7.37564941 12.40037354 6.87629883 12.92574707 6.36181641 13.46704102 C5.36269301 14.51452983 4.35936989 15.55803149 3.3515625 16.59716797 C2.24562438 17.74505822 1.16575384 18.91801268 0.09375 20.09765625 C-4.37356364 24.87971244 -9.45582379 28.82612001 -14.625 32.8125 C-15.35412598 33.37638428 -16.08325195 33.94026855 -16.83447266 34.52124023 C-20.7355694 37.47751927 -24.50907354 39.98120814 -29 42 C-30.82089479 38.35821043 -30.05121113 33.99446852 -30 30 C-25.05 30 -20.1 30 -15 30 C-15 25.05 -15 20.1 -15 15 C-10.05 15 -5.1 15 0 15 C0 10.05 0 5.1 0 0 Z " fill="#EDEDED" transform="translate(285,270)"/>
<path d="M0 0 C1.216875 0.4125 2.43375 0.825 3.6875 1.25 C5.45763056 1.83546244 7.22853628 2.41858383 9 3 C9.94359375 3.31324219 10.8871875 3.62648438 11.859375 3.94921875 C18.26157643 6.00474789 24.69417372 7.71065669 31.25 9.1875 C32.3481604 9.43777954 32.3481604 9.43777954 33.46850586 9.69311523 C41.39348996 11.42561991 49.2793943 12.15229726 57.3828125 12.23828125 C58.15204544 12.24784851 58.92127838 12.25741577 59.71382141 12.26727295 C62.18425631 12.29171315 64.65445961 12.30437963 67.125 12.3125 C67.96749298 12.31611542 68.80998596 12.31973083 69.67800903 12.32345581 C82.74087268 12.3459622 95.10540473 11.32786231 107.88623047 8.46533203 C110.94429861 7.79211906 113.87422217 7.25409549 117 7 C119 9 119 9 119 14 C84.35 14 49.7 14 14 14 C14 12.35 14 10.7 14 9 C9.05 9 4.1 9 -1 9 C-1.09765625 2.84765625 -1.09765625 2.84765625 -1 1 C-0.67 0.67 -0.34 0.34 0 0 Z " fill="#ECECEC" transform="translate(106,336)"/>
<path d="M0 0 C4.95 0 9.9 0 15 0 C15 4.95 15 9.9 15 15 C19.95 15 24.9 15 30 15 C30 15.99 30 16.98 30 18 C32.31 18.33 34.62 18.66 37 19 C37 19.33 37 19.66 37 20 C21.33908125 20.36029721 6.41001476 19.92198925 -9 17 C-6 15 -6 15 0 15 C0 10.05 0 5.1 0 0 Z " fill="#EEEEEE" transform="translate(150,315)"/>
<path d="M0 0 C2.64 0 5.28 0 8 0 C8 4.95 8 9.9 8 15 C3.05 15 -1.9 15 -7 15 C-7 19.95 -7 24.9 -7 30 C-11.95 30 -16.9 30 -22 30 C-22 26.04 -22 22.08 -22 18 C-21.0925 17.87625 -20.185 17.7525 -19.25 17.625 C-15.29182432 16.86381237 -12.77514393 15.479851 -9.375 13.375 C-7 12 -7 12 -5 12 C-2.91620491 8.15299368 -1.50313376 4.09945571 0 0 Z " fill="#ECECEC" transform="translate(292,240)"/>
<path d="M0 0 C3.99343058 2.92505825 7.89337382 5.86026967 11.5625 9.1875 C14.81036109 12.03873289 17.95550313 13.51426646 22 15 C21.34 15.33 20.68 15.66 20 16 C20 18.31 20 20.62 20 23 C15.05 23 10.1 23 5 23 C5 18.05 5 13.1 5 8 C-2.63911191 7.86792344 -2.63911191 7.86792344 -9 11 C-9.46396693 13.89223503 -9.46396693 13.89223503 -9.625 17.125 C-9.74875 19.06375 -9.8725 21.0025 -10 23 C-13.96 23 -17.92 23 -22 23 C-22 20 -22 20 -20.62646484 18.36181641 C-19.99434082 17.78093262 -19.3622168 17.20004883 -18.7109375 16.6015625 C-18.01613281 15.95703125 -17.32132812 15.3125 -16.60546875 14.6484375 C-15.86941406 13.98070312 -15.13335937 13.31296875 -14.375 12.625 C-13.66214844 11.965 -12.94929687 11.305 -12.21484375 10.625 C-8.23733537 6.96131339 -4.18748068 3.42131702 0 0 Z " fill="#EDEDED" transform="translate(145,187)"/>
<path d="M0 0 C-0.33 2.64 -0.66 5.28 -1 8 C-5.95 8 -10.9 8 -16 8 C-16 12.95 -16 17.9 -16 23 C-20.95 23 -25.9 23 -31 23 C-31.33 18.71 -31.66 14.42 -32 10 C-4.23021583 -2.11510791 -4.23021583 -2.11510791 0 0 Z " fill="#EDEDED" transform="translate(136,22)"/>
<path d="M0 0 C4.29 0 8.58 0 13 0 C13 6.74193548 13 6.74193548 11.79296875 9.8828125 C11.53749268 10.56827148 11.2820166 11.25373047 11.01879883 11.95996094 C10.74447021 12.67442383 10.4701416 13.38888672 10.1875 14.125 C5.15829358 27.88235088 2.89904825 41.51594071 1 56 C0.67 56 0.34 56 0 56 C0 37.52 0 19.04 0 0 Z " fill="#EDEDED" transform="translate(0,105)"/>
<path d="M0 0 C3.3 0 6.6 0 10 0 C10 4.95 10 9.9 10 15 C10.99 15 11.98 15 13 15 C13 30.51 13 46.02 13 62 C12.67 62 12.34 62 12 62 C11.89042969 60.73027344 11.78085937 59.46054688 11.66796875 58.15234375 C10.37529944 43.83655519 8.32584091 30.20813984 3.71362305 16.54003906 C2.32276155 12.36583162 1.55004349 8.35883517 1 4 C0.67 2.68 0.34 1.36 0 0 Z " fill="#F0F0F0" transform="translate(335,105)"/>
<path d="M0 0 C0.33 0 0.66 0 1 0 C1.08975098 0.64735107 1.17950195 1.29470215 1.27197266 1.96166992 C3.30901783 16.34655745 6.02709568 30.15163418 10.39916992 44.01489258 C11.59958014 47.98097769 11.59958014 47.98097769 12 50 C11.505 50.495 11.505 50.495 11 51 C7.37 51 3.74 51 0 51 C0 34.17 0 17.34 0 0 Z " fill="#F0F0F0" transform="translate(0,189)"/>
<path d="M0 0 C4.95 0 9.9 0 15 0 C15 4.95 15 9.9 15 15 C9.06 15.495 9.06 15.495 3 16 C6.63 19.3 10.26 22.6 14 26 C13.67 26.66 13.34 27.32 13 28 C-0.1414791 18.17289142 -0.1414791 18.17289142 -1.56494141 12.91210938 C-1.87471913 8.30057297 -0.95619758 4.65059735 0 0 Z " fill="#FCFCFC" transform="translate(255,195)"/>
<path d="M0 0 C4.95 0 9.9 0 15 0 C15 4.95 15 9.9 15 15 C10.38 15 5.76 15 1 15 C1 19.95 1 24.9 1 30 C0.67 30 0.34 30 0 30 C0 20.1 0 10.2 0 0 Z " fill="#FFFFFF" transform="translate(75,195)"/>
<path d="M0 0 C0 9.9 0 19.8 0 30 C-0.33 30 -0.66 30 -1 30 C-1 25.38 -1 20.76 -1 16 C-5.62 16 -10.24 16 -15 16 C-15 11.05 -15 6.1 -15 1 C-1.125 0 -1.125 0 0 0 Z " fill="#FFFFFF" transform="translate(60,194)"/>
<path d="M0 0 C4.95 0 9.9 0 15 0 C15.33 4.29 15.66 8.58 16 13 C16.66 12.67 17.32 12.34 18 12 C16.75023244 15.65316671 16.32901247 16.78065836 13 19 C13.33 18.01 13.66 17.02 14 16 C7.07 15.505 7.07 15.505 0 15 C0 10.05 0 5.1 0 0 Z " fill="#FEFEFE" transform="translate(285,255)"/>
<path d="M0 0 C4.95 0 9.9 0 15 0 C15.22786458 1.98567708 15.45572917 3.97135417 15.68359375 5.95703125 C15.97170735 8.19396393 15.97170735 8.19396393 17 11 C16.07796291 13.36522558 15.08301035 15.70401807 14 18 C13.67 17.01 13.34 16.02 13 15 C8.71 15 4.42 15 0 15 C0 10.05 0 5.1 0 0 Z " fill="#FEFEFE" transform="translate(0,90)"/>
<path d="M0 0 C4.95 0 9.9 0 15 0 C15 4.95 15 9.9 15 15 C2.14285714 16.42857143 2.14285714 16.42857143 -3 14 C-2.01 13.67 -1.02 13.34 0 13 C0 8.71 0 4.42 0 0 Z " fill="#FEFEFE" transform="translate(135,315)"/>
<path d="M0 0 C4.95 0 9.9 0 15 0 C15 4.95 15 9.9 15 15 C9.555 15.495 9.555 15.495 4 16 C4 16.99 4 17.98 4 19 C1.48828125 17.484375 1.48828125 17.484375 -1 15 C-1.21268724 12.10252169 -1.18038956 10.06088248 -0.8125 7.25 C-0.544375 4.8575 -0.27625 2.465 0 0 Z " fill="#FDFDFD" transform="translate(75,285)"/>
<path d="M0 0 C0.99 0.33 1.98 0.66 3 1 C1.515 2.485 1.515 2.485 0 4 C2.97 4.495 2.97 4.495 6 5 C6 9.95 6 14.9 6 20 C1.05 20 -3.9 20 -9 20 C-9.48909016 9.85137917 -9.48909016 9.85137917 -7.3125 6.0625 C-6.549375 5.381875 -5.78625 4.70125 -5 4 C-4.154375 3.21625 -3.30875 2.4325 -2.4375 1.625 C-1.633125 1.08875 -0.82875 0.5525 0 0 Z " fill="#FDFDFD" transform="translate(204,190)"/>
<path d="M0 0 C4.95 0 9.9 0 15 0 C15 4.95 15 9.9 15 15 C12.03 15 9.06 15 6 15 C5.67 15.66 5.34 16.32 5 17 C2.36 15.68 -0.28 14.36 -3 13 C-2.34 12.67 -1.68 12.34 -1 12 C-0.53101037 9.1840151 -0.53101037 9.1840151 -0.375 5.9375 C-0.25125 3.978125 -0.1275 2.01875 0 0 Z " fill="#FDFDFD" transform="translate(240,0)"/>
<path d="M0 0 C4.95 0 9.9 0 15 0 C15 4.95 15 9.9 15 15 C11.04 15 7.08 15 3 15 C2.67 15.66 2.34 16.32 2 17 C-0.125 15.25 -0.125 15.25 -2 12 C-1.75143595 7.84465746 -0.89866599 4.08893028 0 0 Z " fill="#FDFDFD" transform="translate(45,255)"/>
<path d="M0 0 C0.33 0.66 0.66 1.32 1 2 C5.95 2 10.9 2 16 2 C16 6.95 16 11.9 16 17 C11.05 17 6.1 17 1 17 C0.77213542 13.6796875 0.54427083 10.359375 0.31640625 7.0390625 C0.18915064 4.08481099 0.18915064 4.08481099 -1 2 C-0.67 1.34 -0.34 0.68 0 0 Z " fill="#EDEDED" transform="translate(329,253)"/>
<path d="M0 0 C6.93 0.495 6.93 0.495 14 1 C14 5.95 14 10.9 14 16 C9.05 16 4.1 16 -1 16 C-2.25 3.375 -2.25 3.375 0 0 Z " fill="#FEFEFE" transform="translate(121,209)"/>
<path d="M0 0 C1.75 2.625 1.75 2.625 3 5 C2.34 5 1.68 5 1 5 C1 7.97 1 10.94 1 14 C-3.95 14 -8.9 14 -14 14 C-14 9.05 -14 4.1 -14 -1 C-3.56043956 -2.37362637 -3.56043956 -2.37362637 0 0 Z " fill="#FDFDFD" transform="translate(299,76)"/>
<path d="M0 0 C4.95 0 9.9 0 15 0 C15 4.95 15 9.9 15 15 C10.05 15 5.1 15 0 15 C0 10.05 0 5.1 0 0 Z " fill="#FFFFFF" transform="translate(330,330)"/>
<path d="M0 0 C4.95 0 9.9 0 15 0 C15 4.95 15 9.9 15 15 C10.05 15 5.1 15 0 15 C0 10.05 0 5.1 0 0 Z " fill="#EEEEEE" transform="translate(315,330)"/>
<path d="M0 0 C4.95 0 9.9 0 15 0 C15 4.95 15 9.9 15 15 C10.05 15 5.1 15 0 15 C0 10.05 0 5.1 0 0 Z " fill="#FFFFFF" transform="translate(300,330)"/>
<path d="M0 0 C4.95 0 9.9 0 15 0 C15 4.95 15 9.9 15 15 C10.05 15 5.1 15 0 15 C0 10.05 0 5.1 0 0 Z " fill="#EEEEEE" transform="translate(285,330)"/>
<path d="M0 0 C4.95 0 9.9 0 15 0 C15 4.95 15 9.9 15 15 C10.05 15 5.1 15 0 15 C0 10.05 0 5.1 0 0 Z " fill="#FFFFFF" transform="translate(270,330)"/>
<path d="M0 0 C4.95 0 9.9 0 15 0 C15 4.95 15 9.9 15 15 C10.05 15 5.1 15 0 15 C0 10.05 0 5.1 0 0 Z " fill="#EEEEEE" transform="translate(75,330)"/>
<path d="M0 0 C4.95 0 9.9 0 15 0 C15 4.95 15 9.9 15 15 C10.05 15 5.1 15 0 15 C0 10.05 0 5.1 0 0 Z " fill="#EEEEEE" transform="translate(45,330)"/>
<path d="M0 0 C4.95 0 9.9 0 15 0 C15 4.95 15 9.9 15 15 C10.05 15 5.1 15 0 15 C0 10.05 0 5.1 0 0 Z " fill="#FFFFFF" transform="translate(30,330)"/>
<path d="M0 0 C4.95 0 9.9 0 15 0 C15 4.95 15 9.9 15 15 C10.05 15 5.1 15 0 15 C0 10.05 0 5.1 0 0 Z " fill="#EEEEEE" transform="translate(15,330)"/>
<path d="M0 0 C4.95 0 9.9 0 15 0 C15 4.95 15 9.9 15 15 C10.05 15 5.1 15 0 15 C0 10.05 0 5.1 0 0 Z " fill="#EEEEEE" transform="translate(330,315)"/>
<path d="M0 0 C4.95 0 9.9 0 15 0 C15 4.95 15 9.9 15 15 C10.05 15 5.1 15 0 15 C0 10.05 0 5.1 0 0 Z " fill="#FFFFFF" transform="translate(315,315)"/>
<path d="M0 0 C4.95 0 9.9 0 15 0 C15 4.95 15 9.9 15 15 C10.05 15 5.1 15 0 15 C0 10.05 0 5.1 0 0 Z " fill="#EEEEEE" transform="translate(300,315)"/>
<path d="M0 0 C4.95 0 9.9 0 15 0 C15 4.95 15 9.9 15 15 C10.05 15 5.1 15 0 15 C0 10.05 0 5.1 0 0 Z " fill="#FFFFFF" transform="translate(285,315)"/>
<path d="M0 0 C4.95 0 9.9 0 15 0 C15 4.95 15 9.9 15 15 C10.05 15 5.1 15 0 15 C0 10.05 0 5.1 0 0 Z " fill="#EEEEEE" transform="translate(180,315)"/>
<path d="M0 0 C4.95 0 9.9 0 15 0 C15 4.95 15 9.9 15 15 C10.05 15 5.1 15 0 15 C0 10.05 0 5.1 0 0 Z " fill="#FFFFFF" transform="translate(165,315)"/>
<path d="M0 0 C4.95 0 9.9 0 15 0 C15 4.95 15 9.9 15 15 C10.05 15 5.1 15 0 15 C0 10.05 0 5.1 0 0 Z " fill="#FFFFFF" transform="translate(45,315)"/>
<path d="M0 0 C4.95 0 9.9 0 15 0 C15 4.95 15 9.9 15 15 C10.05 15 5.1 15 0 15 C0 10.05 0 5.1 0 0 Z " fill="#EEEEEE" transform="translate(30,315)"/>
<path d="M0 0 C4.95 0 9.9 0 15 0 C15 4.95 15 9.9 15 15 C10.05 15 5.1 15 0 15 C0 10.05 0 5.1 0 0 Z " fill="#FFFFFF" transform="translate(15,315)"/>
<path d="M0 0 C4.95 0 9.9 0 15 0 C15 4.95 15 9.9 15 15 C10.05 15 5.1 15 0 15 C0 10.05 0 5.1 0 0 Z " fill="#EEEEEE" transform="translate(0,315)"/>
<path d="M0 0 C4.95 0 9.9 0 15 0 C15 4.95 15 9.9 15 15 C10.05 15 5.1 15 0 15 C0 10.05 0 5.1 0 0 Z " fill="#FFFFFF" transform="translate(330,300)"/>
<path d="M0 0 C4.95 0 9.9 0 15 0 C15 4.95 15 9.9 15 15 C10.05 15 5.1 15 0 15 C0 10.05 0 5.1 0 0 Z " fill="#EEEEEE" transform="translate(315,300)"/>
<path d="M0 0 C4.95 0 9.9 0 15 0 C15 4.95 15 9.9 15 15 C10.05 15 5.1 15 0 15 C0 10.05 0 5.1 0 0 Z " fill="#FFFFFF" transform="translate(300,300)"/>
<path d="M0 0 C4.95 0 9.9 0 15 0 C15 4.95 15 9.9 15 15 C10.05 15 5.1 15 0 15 C0 10.05 0 5.1 0 0 Z " fill="#EEEEEE" transform="translate(225,300)"/>
<path d="M0 0 C4.95 0 9.9 0 15 0 C15 4.95 15 9.9 15 15 C10.05 15 5.1 15 0 15 C0 10.05 0 5.1 0 0 Z " fill="#FFFFFF" transform="translate(210,300)"/>
<path d="M0 0 C4.95 0 9.9 0 15 0 C15 4.95 15 9.9 15 15 C10.05 15 5.1 15 0 15 C0 10.05 0 5.1 0 0 Z " fill="#EEEEEE" transform="translate(195,300)"/>
<path d="M0 0 C4.95 0 9.9 0 15 0 C15 4.95 15 9.9 15 15 C10.05 15 5.1 15 0 15 C0 10.05 0 5.1 0 0 Z " fill="#FFFFFF" transform="translate(180,300)"/>
<path d="M0 0 C4.95 0 9.9 0 15 0 C15 4.95 15 9.9 15 15 C10.05 15 5.1 15 0 15 C0 10.05 0 5.1 0 0 Z " fill="#EEEEEE" transform="translate(165,300)"/>
<path d="M0 0 C4.95 0 9.9 0 15 0 C15 4.95 15 9.9 15 15 C10.05 15 5.1 15 0 15 C0 10.05 0 5.1 0 0 Z " fill="#FFFFFF" transform="translate(150,300)"/>
<path d="M0 0 C4.95 0 9.9 0 15 0 C15 4.95 15 9.9 15 15 C10.05 15 5.1 15 0 15 C0 10.05 0 5.1 0 0 Z " fill="#EEEEEE" transform="translate(135,300)"/>
<path d="M0 0 C4.95 0 9.9 0 15 0 C15 4.95 15 9.9 15 15 C10.05 15 5.1 15 0 15 C0 10.05 0 5.1 0 0 Z " fill="#FFFFFF" transform="translate(120,300)"/>
<path d="M0 0 C4.95 0 9.9 0 15 0 C15 4.95 15 9.9 15 15 C10.05 15 5.1 15 0 15 C0 10.05 0 5.1 0 0 Z " fill="#FFFFFF" transform="translate(30,300)"/>
<path d="M0 0 C4.95 0 9.9 0 15 0 C15 4.95 15 9.9 15 15 C10.05 15 5.1 15 0 15 C0 10.05 0 5.1 0 0 Z " fill="#EEEEEE" transform="translate(15,300)"/>
<path d="M0 0 C4.95 0 9.9 0 15 0 C15 4.95 15 9.9 15 15 C10.05 15 5.1 15 0 15 C0 10.05 0 5.1 0 0 Z " fill="#FFFFFF" transform="translate(0,300)"/>
<path d="M0 0 C4.95 0 9.9 0 15 0 C15 4.95 15 9.9 15 15 C10.05 15 5.1 15 0 15 C0 10.05 0 5.1 0 0 Z " fill="#EEEEEE" transform="translate(330,285)"/>
<path d="M0 0 C4.95 0 9.9 0 15 0 C15 4.95 15 9.9 15 15 C10.05 15 5.1 15 0 15 C0 10.05 0 5.1 0 0 Z " fill="#FFFFFF" transform="translate(315,285)"/>
<path d="M0 0 C4.95 0 9.9 0 15 0 C15 4.95 15 9.9 15 15 C10.05 15 5.1 15 0 15 C0 10.05 0 5.1 0 0 Z " fill="#FFFFFF" transform="translate(255,285)"/>
<path d="M0 0 C4.95 0 9.9 0 15 0 C15 4.95 15 9.9 15 15 C10.05 15 5.1 15 0 15 C0 10.05 0 5.1 0 0 Z " fill="#EEEEEE" transform="translate(240,285)"/>
<path d="M0 0 C4.95 0 9.9 0 15 0 C15 4.95 15 9.9 15 15 C10.05 15 5.1 15 0 15 C0 10.05 0 5.1 0 0 Z " fill="#FFFFFF" transform="translate(225,285)"/>
<path d="M0 0 C4.95 0 9.9 0 15 0 C15 4.95 15 9.9 15 15 C10.05 15 5.1 15 0 15 C0 10.05 0 5.1 0 0 Z " fill="#EEEEEE" transform="translate(210,285)"/>
<path d="M0 0 C4.95 0 9.9 0 15 0 C15 4.95 15 9.9 15 15 C10.05 15 5.1 15 0 15 C0 10.05 0 5.1 0 0 Z " fill="#FFFFFF" transform="translate(195,285)"/>
<path d="M0 0 C4.95 0 9.9 0 15 0 C15 4.95 15 9.9 15 15 C10.05 15 5.1 15 0 15 C0 10.05 0 5.1 0 0 Z " fill="#EEEEEE" transform="translate(180,285)"/>
<path d="M0 0 C4.95 0 9.9 0 15 0 C15 4.95 15 9.9 15 15 C10.05 15 5.1 15 0 15 C0 10.05 0 5.1 0 0 Z " fill="#FFFFFF" transform="translate(165,285)"/>
<path d="M0 0 C4.95 0 9.9 0 15 0 C15 4.95 15 9.9 15 15 C10.05 15 5.1 15 0 15 C0 10.05 0 5.1 0 0 Z " fill="#EEEEEE" transform="translate(150,285)"/>
<path d="M0 0 C4.95 0 9.9 0 15 0 C15 4.95 15 9.9 15 15 C10.05 15 5.1 15 0 15 C0 10.05 0 5.1 0 0 Z " fill="#FFFFFF" transform="translate(135,285)"/>
<path d="M0 0 C4.95 0 9.9 0 15 0 C15 4.95 15 9.9 15 15 C10.05 15 5.1 15 0 15 C0 10.05 0 5.1 0 0 Z " fill="#EEEEEE" transform="translate(120,285)"/>
<path d="M0 0 C4.95 0 9.9 0 15 0 C15 4.95 15 9.9 15 15 C10.05 15 5.1 15 0 15 C0 10.05 0 5.1 0 0 Z " fill="#FFFFFF" transform="translate(105,285)"/>
<path d="M0 0 C4.95 0 9.9 0 15 0 C15 4.95 15 9.9 15 15 C10.05 15 5.1 15 0 15 C0 10.05 0 5.1 0 0 Z " fill="#EEEEEE" transform="translate(90,285)"/>
<path d="M0 0 C4.95 0 9.9 0 15 0 C15 4.95 15 9.9 15 15 C10.05 15 5.1 15 0 15 C0 10.05 0 5.1 0 0 Z " fill="#FFFFFF" transform="translate(15,285)"/>
<path d="M0 0 C4.95 0 9.9 0 15 0 C15 4.95 15 9.9 15 15 C10.05 15 5.1 15 0 15 C0 10.05 0 5.1 0 0 Z " fill="#EEEEEE" transform="translate(0,285)"/>
<path d="M0 0 C4.95 0 9.9 0 15 0 C15 4.95 15 9.9 15 15 C10.05 15 5.1 15 0 15 C0 10.05 0 5.1 0 0 Z " fill="#FFFFFF" transform="translate(330,270)"/>
<path d="M0 0 C4.95 0 9.9 0 15 0 C15 4.95 15 9.9 15 15 C10.05 15 5.1 15 0 15 C0 10.05 0 5.1 0 0 Z " fill="#FFFFFF" transform="translate(270,270)"/>
<path d="M0 0 C4.95 0 9.9 0 15 0 C15 4.95 15 9.9 15 15 C10.05 15 5.1 15 0 15 C0 10.05 0 5.1 0 0 Z " fill="#EEEEEE" transform="translate(255,270)"/>
<path d="M0 0 C4.95 0 9.9 0 15 0 C15 4.95 15 9.9 15 15 C10.05 15 5.1 15 0 15 C0 10.05 0 5.1 0 0 Z " fill="#FFFFFF" transform="translate(240,270)"/>
<path d="M0 0 C4.95 0 9.9 0 15 0 C15 4.95 15 9.9 15 15 C10.05 15 5.1 15 0 15 C0 10.05 0 5.1 0 0 Z " fill="#EEEEEE" transform="translate(225,270)"/>
<path d="M0 0 C4.95 0 9.9 0 15 0 C15 4.95 15 9.9 15 15 C10.05 15 5.1 15 0 15 C0 10.05 0 5.1 0 0 Z " fill="#FFFFFF" transform="translate(210,270)"/>
<path d="M0 0 C4.95 0 9.9 0 15 0 C15 4.95 15 9.9 15 15 C10.05 15 5.1 15 0 15 C0 10.05 0 5.1 0 0 Z " fill="#EEEEEE" transform="translate(195,270)"/>
<path d="M0 0 C4.95 0 9.9 0 15 0 C15 4.95 15 9.9 15 15 C10.05 15 5.1 15 0 15 C0 10.05 0 5.1 0 0 Z " fill="#FFFFFF" transform="translate(180,270)"/>
<path d="M0 0 C4.95 0 9.9 0 15 0 C15 4.95 15 9.9 15 15 C10.05 15 5.1 15 0 15 C0 10.05 0 5.1 0 0 Z " fill="#EEEEEE" transform="translate(165,270)"/>
<path d="M0 0 C4.95 0 9.9 0 15 0 C15 4.95 15 9.9 15 15 C10.05 15 5.1 15 0 15 C0 10.05 0 5.1 0 0 Z " fill="#FFFFFF" transform="translate(150,270)"/>
<path d="M0 0 C4.95 0 9.9 0 15 0 C15 4.95 15 9.9 15 15 C10.05 15 5.1 15 0 15 C0 10.05 0 5.1 0 0 Z " fill="#EEEEEE" transform="translate(135,270)"/>
<path d="M0 0 C4.95 0 9.9 0 15 0 C15 4.95 15 9.9 15 15 C10.05 15 5.1 15 0 15 C0 10.05 0 5.1 0 0 Z " fill="#FFFFFF" transform="translate(120,270)"/>
<path d="M0 0 C4.95 0 9.9 0 15 0 C15 4.95 15 9.9 15 15 C10.05 15 5.1 15 0 15 C0 10.05 0 5.1 0 0 Z " fill="#EEEEEE" transform="translate(105,270)"/>
<path d="M0 0 C4.95 0 9.9 0 15 0 C15 4.95 15 9.9 15 15 C10.05 15 5.1 15 0 15 C0 10.05 0 5.1 0 0 Z " fill="#FFFFFF" transform="translate(90,270)"/>
<path d="M0 0 C4.95 0 9.9 0 15 0 C15 4.95 15 9.9 15 15 C10.05 15 5.1 15 0 15 C0 10.05 0 5.1 0 0 Z " fill="#EEEEEE" transform="translate(75,270)"/>
<path d="M0 0 C4.95 0 9.9 0 15 0 C15 4.95 15 9.9 15 15 C10.05 15 5.1 15 0 15 C0 10.05 0 5.1 0 0 Z " fill="#FFFFFF" transform="translate(0,270)"/>
<path d="M0 0 C4.95 0 9.9 0 15 0 C15 4.95 15 9.9 15 15 C10.05 15 5.1 15 0 15 C0 10.05 0 5.1 0 0 Z " fill="#EEEEEE" transform="translate(0,255)"/>
<path d="M0 0 C4.95 0 9.9 0 15 0 C15 4.95 15 9.9 15 15 C10.05 15 5.1 15 0 15 C0 10.05 0 5.1 0 0 Z " fill="#EEEEEE" transform="translate(300,225)"/>
<path d="M0 0 C4.95 0 9.9 0 15 0 C15 4.95 15 9.9 15 15 C10.05 15 5.1 15 0 15 C0 10.05 0 5.1 0 0 Z " fill="#EEEEEE" transform="translate(210,225)"/>
<path d="M0 0 C4.95 0 9.9 0 15 0 C15 4.95 15 9.9 15 15 C10.05 15 5.1 15 0 15 C0 10.05 0 5.1 0 0 Z " fill="#EEEEEE" transform="translate(180,225)"/>
<path d="M0 0 C4.95 0 9.9 0 15 0 C15 4.95 15 9.9 15 15 C10.05 15 5.1 15 0 15 C0 10.05 0 5.1 0 0 Z " fill="#EEEEEE" transform="translate(150,225)"/>
<path d="M0 0 C4.95 0 9.9 0 15 0 C15 4.95 15 9.9 15 15 C10.05 15 5.1 15 0 15 C0 10.05 0 5.1 0 0 Z " fill="#EEEEEE" transform="translate(120,225)"/>
<path d="M0 0 C4.95 0 9.9 0 15 0 C15 4.95 15 9.9 15 15 C10.05 15 5.1 15 0 15 C0 10.05 0 5.1 0 0 Z " fill="#FFFFFF" transform="translate(210,210)"/>
<path d="M0 0 C4.95 0 9.9 0 15 0 C15 4.95 15 9.9 15 15 C10.05 15 5.1 15 0 15 C0 10.05 0 5.1 0 0 Z " fill="#EEEEEE" transform="translate(195,210)"/>
<path d="M0 0 C4.95 0 9.9 0 15 0 C15 4.95 15 9.9 15 15 C10.05 15 5.1 15 0 15 C0 10.05 0 5.1 0 0 Z " fill="#FFFFFF" transform="translate(180,210)"/>
<path d="M0 0 C4.95 0 9.9 0 15 0 C15 4.95 15 9.9 15 15 C10.05 15 5.1 15 0 15 C0 10.05 0 5.1 0 0 Z " fill="#FFFFFF" transform="translate(150,210)"/>
<path d="M0 0 C4.95 0 9.9 0 15 0 C15 4.95 15 9.9 15 15 C10.05 15 5.1 15 0 15 C0 10.05 0 5.1 0 0 Z " fill="#FFFFFF" transform="translate(30,210)"/>
<path d="M0 0 C4.95 0 9.9 0 15 0 C15 4.95 15 9.9 15 15 C10.05 15 5.1 15 0 15 C0 10.05 0 5.1 0 0 Z " fill="#EEEEEE" transform="translate(30,195)"/>
<path d="M0 0 C4.95 0 9.9 0 15 0 C15 4.95 15 9.9 15 15 C10.05 15 5.1 15 0 15 C0 10.05 0 5.1 0 0 Z " fill="#EEEEEE" transform="translate(315,180)"/>
<path d="M0 0 C4.95 0 9.9 0 15 0 C15 4.95 15 9.9 15 15 C10.05 15 5.1 15 0 15 C0 10.05 0 5.1 0 0 Z " fill="#FFFFFF" transform="translate(300,180)"/>
<path d="M0 0 C4.95 0 9.9 0 15 0 C15 4.95 15 9.9 15 15 C10.05 15 5.1 15 0 15 C0 10.05 0 5.1 0 0 Z " fill="#FFFFFF" transform="translate(90,180)"/>
<path d="M0 0 C4.95 0 9.9 0 15 0 C15 4.95 15 9.9 15 15 C10.05 15 5.1 15 0 15 C0 10.05 0 5.1 0 0 Z " fill="#FFFFFF" transform="translate(30,180)"/>
<path d="M0 0 C4.95 0 9.9 0 15 0 C15 4.95 15 9.9 15 15 C10.05 15 5.1 15 0 15 C0 10.05 0 5.1 0 0 Z " fill="#FFFFFF" transform="translate(315,165)"/>
<path d="M0 0 C4.95 0 9.9 0 15 0 C15 4.95 15 9.9 15 15 C10.05 15 5.1 15 0 15 C0 10.05 0 5.1 0 0 Z " fill="#EEEEEE" transform="translate(300,165)"/>
<path d="M0 0 C4.95 0 9.9 0 15 0 C15 4.95 15 9.9 15 15 C10.05 15 5.1 15 0 15 C0 10.05 0 5.1 0 0 Z " fill="#EEEEEE" transform="translate(240,165)"/>
<path d="M0 0 C4.95 0 9.9 0 15 0 C15 4.95 15 9.9 15 15 C10.05 15 5.1 15 0 15 C0 10.05 0 5.1 0 0 Z " fill="#FFFFFF" transform="translate(165,165)"/>
<path d="M0 0 C4.95 0 9.9 0 15 0 C15 4.95 15 9.9 15 15 C10.05 15 5.1 15 0 15 C0 10.05 0 5.1 0 0 Z " fill="#FFFFFF" transform="translate(105,165)"/>
<path d="M0 0 C4.95 0 9.9 0 15 0 C15 4.95 15 9.9 15 15 C10.05 15 5.1 15 0 15 C0 10.05 0 5.1 0 0 Z " fill="#EEEEEE" transform="translate(90,165)"/>
<path d="M0 0 C4.95 0 9.9 0 15 0 C15 4.95 15 9.9 15 15 C10.05 15 5.1 15 0 15 C0 10.05 0 5.1 0 0 Z " fill="#EEEEEE" transform="translate(30,165)"/>
<path d="M0 0 C4.95 0 9.9 0 15 0 C15 4.95 15 9.9 15 15 C10.05 15 5.1 15 0 15 C0 10.05 0 5.1 0 0 Z " fill="#FFFFFF" transform="translate(300,150)"/>
<path d="M0 0 C4.95 0 9.9 0 15 0 C15 4.95 15 9.9 15 15 C10.05 15 5.1 15 0 15 C0 10.05 0 5.1 0 0 Z " fill="#EEEEEE" transform="translate(255,150)"/>
<path d="M0 0 C4.95 0 9.9 0 15 0 C15 4.95 15 9.9 15 15 C10.05 15 5.1 15 0 15 C0 10.05 0 5.1 0 0 Z " fill="#FFFFFF" transform="translate(180,150)"/>
<path d="M0 0 C4.95 0 9.9 0 15 0 C15 4.95 15 9.9 15 15 C10.05 15 5.1 15 0 15 C0 10.05 0 5.1 0 0 Z " fill="#EEEEEE" transform="translate(165,150)"/>
<path d="M0 0 C4.95 0 9.9 0 15 0 C15 4.95 15 9.9 15 15 C10.05 15 5.1 15 0 15 C0 10.05 0 5.1 0 0 Z " fill="#FFFFFF" transform="translate(150,150)"/>
<path d="M0 0 C4.95 0 9.9 0 15 0 C15 4.95 15 9.9 15 15 C10.05 15 5.1 15 0 15 C0 10.05 0 5.1 0 0 Z " fill="#FFFFFF" transform="translate(30,150)"/>
<path d="M0 0 C4.95 0 9.9 0 15 0 C15 4.95 15 9.9 15 15 C10.05 15 5.1 15 0 15 C0 10.05 0 5.1 0 0 Z " fill="#EEEEEE" transform="translate(300,135)"/>
<path d="M0 0 C4.95 0 9.9 0 15 0 C15 4.95 15 9.9 15 15 C10.05 15 5.1 15 0 15 C0 10.05 0 5.1 0 0 Z " fill="#FFFFFF" transform="translate(195,135)"/>
<path d="M0 0 C4.95 0 9.9 0 15 0 C15 4.95 15 9.9 15 15 C10.05 15 5.1 15 0 15 C0 10.05 0 5.1 0 0 Z " fill="#EEEEEE" transform="translate(180,135)"/>
<path d="M0 0 C4.95 0 9.9 0 15 0 C15 4.95 15 9.9 15 15 C10.05 15 5.1 15 0 15 C0 10.05 0 5.1 0 0 Z " fill="#FFFFFF" transform="translate(165,135)"/>
<path d="M0 0 C4.95 0 9.9 0 15 0 C15 4.95 15 9.9 15 15 C10.05 15 5.1 15 0 15 C0 10.05 0 5.1 0 0 Z " fill="#EEEEEE" transform="translate(150,135)"/>
<path d="M0 0 C4.95 0 9.9 0 15 0 C15 4.95 15 9.9 15 15 C10.05 15 5.1 15 0 15 C0 10.05 0 5.1 0 0 Z " fill="#FFFFFF" transform="translate(135,135)"/>
<path d="M0 0 C4.95 0 9.9 0 15 0 C15 4.95 15 9.9 15 15 C10.05 15 5.1 15 0 15 C0 10.05 0 5.1 0 0 Z " fill="#FFFFFF" transform="translate(300,120)"/>
<path d="M0 0 C4.95 0 9.9 0 15 0 C15 4.95 15 9.9 15 15 C10.05 15 5.1 15 0 15 C0 10.05 0 5.1 0 0 Z " fill="#EEEEEE" transform="translate(195,120)"/>
<path d="M0 0 C4.95 0 9.9 0 15 0 C15 4.95 15 9.9 15 15 C10.05 15 5.1 15 0 15 C0 10.05 0 5.1 0 0 Z " fill="#FFFFFF" transform="translate(180,120)"/>
<path d="M0 0 C4.95 0 9.9 0 15 0 C15 4.95 15 9.9 15 15 C10.05 15 5.1 15 0 15 C0 10.05 0 5.1 0 0 Z " fill="#EEEEEE" transform="translate(165,120)"/>
<path d="M0 0 C4.95 0 9.9 0 15 0 C15 4.95 15 9.9 15 15 C10.05 15 5.1 15 0 15 C0 10.05 0 5.1 0 0 Z " fill="#FFFFFF" transform="translate(150,120)"/>
<path d="M0 0 C4.95 0 9.9 0 15 0 C15 4.95 15 9.9 15 15 C10.05 15 5.1 15 0 15 C0 10.05 0 5.1 0 0 Z " fill="#EEEEEE" transform="translate(135,120)"/>
<path d="M0 0 C4.95 0 9.9 0 15 0 C15 4.95 15 9.9 15 15 C10.05 15 5.1 15 0 15 C0 10.05 0 5.1 0 0 Z " fill="#FFFFFF" transform="translate(120,120)"/>
<path d="M0 0 C4.95 0 9.9 0 15 0 C15 4.95 15 9.9 15 15 C10.05 15 5.1 15 0 15 C0 10.05 0 5.1 0 0 Z " fill="#FFFFFF" transform="translate(30,120)"/>
<path d="M0 0 C4.95 0 9.9 0 15 0 C15 4.95 15 9.9 15 15 C10.05 15 5.1 15 0 15 C0 10.05 0 5.1 0 0 Z " fill="#EEEEEE" transform="translate(300,105)"/>
<path d="M0 0 C4.95 0 9.9 0 15 0 C15 4.95 15 9.9 15 15 C10.05 15 5.1 15 0 15 C0 10.05 0 5.1 0 0 Z " fill="#EEEEEE" transform="translate(45,90)"/>
<path d="M0 0 C4.95 0 9.9 0 15 0 C15 4.95 15 9.9 15 15 C10.05 15 5.1 15 0 15 C0 10.05 0 5.1 0 0 Z " fill="#EEEEEE" transform="translate(330,75)"/>
<path d="M0 0 C4.95 0 9.9 0 15 0 C15 4.95 15 9.9 15 15 C10.05 15 5.1 15 0 15 C0 10.05 0 5.1 0 0 Z " fill="#FFFFFF" transform="translate(255,75)"/>
<path d="M0 0 C4.95 0 9.9 0 15 0 C15 4.95 15 9.9 15 15 C10.05 15 5.1 15 0 15 C0 10.05 0 5.1 0 0 Z " fill="#EEEEEE" transform="translate(210,75)"/>
<path d="M0 0 C4.95 0 9.9 0 15 0 C15 4.95 15 9.9 15 15 C10.05 15 5.1 15 0 15 C0 10.05 0 5.1 0 0 Z " fill="#EEEEEE" transform="translate(180,75)"/>
<path d="M0 0 C4.95 0 9.9 0 15 0 C15 4.95 15 9.9 15 15 C10.05 15 5.1 15 0 15 C0 10.05 0 5.1 0 0 Z " fill="#EEEEEE" transform="translate(150,75)"/>
<path d="M0 0 C4.95 0 9.9 0 15 0 C15 4.95 15 9.9 15 15 C10.05 15 5.1 15 0 15 C0 10.05 0 5.1 0 0 Z " fill="#EEEEEE" transform="translate(120,75)"/>
<path d="M0 0 C4.95 0 9.9 0 15 0 C15 4.95 15 9.9 15 15 C10.05 15 5.1 15 0 15 C0 10.05 0 5.1 0 0 Z " fill="#EEEEEE" transform="translate(90,75)"/>
<path d="M0 0 C4.95 0 9.9 0 15 0 C15 4.95 15 9.9 15 15 C10.05 15 5.1 15 0 15 C0 10.05 0 5.1 0 0 Z " fill="#FFFFFF" transform="translate(75,75)"/>
<path d="M0 0 C4.95 0 9.9 0 15 0 C15 4.95 15 9.9 15 15 C10.05 15 5.1 15 0 15 C0 10.05 0 5.1 0 0 Z " fill="#EEEEEE" transform="translate(60,75)"/>
<path d="M0 0 C4.95 0 9.9 0 15 0 C15 4.95 15 9.9 15 15 C10.05 15 5.1 15 0 15 C0 10.05 0 5.1 0 0 Z " fill="#EEEEEE" transform="translate(0,75)"/>
<path d="M0 0 C4.95 0 9.9 0 15 0 C15 4.95 15 9.9 15 15 C10.05 15 5.1 15 0 15 C0 10.05 0 5.1 0 0 Z " fill="#EEEEEE" transform="translate(255,60)"/>
<path d="M0 0 C4.95 0 9.9 0 15 0 C15 4.95 15 9.9 15 15 C10.05 15 5.1 15 0 15 C0 10.05 0 5.1 0 0 Z " fill="#FFFFFF" transform="translate(240,60)"/>
<path d="M0 0 C4.95 0 9.9 0 15 0 C15 4.95 15 9.9 15 15 C10.05 15 5.1 15 0 15 C0 10.05 0 5.1 0 0 Z " fill="#FFFFFF" transform="translate(210,60)"/>
<path d="M0 0 C4.95 0 9.9 0 15 0 C15 4.95 15 9.9 15 15 C10.05 15 5.1 15 0 15 C0 10.05 0 5.1 0 0 Z " fill="#EEEEEE" transform="translate(195,60)"/>
<path d="M0 0 C4.95 0 9.9 0 15 0 C15 4.95 15 9.9 15 15 C10.05 15 5.1 15 0 15 C0 10.05 0 5.1 0 0 Z " fill="#FFFFFF" transform="translate(180,60)"/>
<path d="M0 0 C4.95 0 9.9 0 15 0 C15 4.95 15 9.9 15 15 C10.05 15 5.1 15 0 15 C0 10.05 0 5.1 0 0 Z " fill="#EEEEEE" transform="translate(165,60)"/>
<path d="M0 0 C4.95 0 9.9 0 15 0 C15 4.95 15 9.9 15 15 C10.05 15 5.1 15 0 15 C0 10.05 0 5.1 0 0 Z " fill="#FFFFFF" transform="translate(150,60)"/>
<path d="M0 0 C4.95 0 9.9 0 15 0 C15 4.95 15 9.9 15 15 C10.05 15 5.1 15 0 15 C0 10.05 0 5.1 0 0 Z " fill="#EEEEEE" transform="translate(135,60)"/>
<path d="M0 0 C4.95 0 9.9 0 15 0 C15 4.95 15 9.9 15 15 C10.05 15 5.1 15 0 15 C0 10.05 0 5.1 0 0 Z " fill="#FFFFFF" transform="translate(120,60)"/>
<path d="M0 0 C4.95 0 9.9 0 15 0 C15 4.95 15 9.9 15 15 C10.05 15 5.1 15 0 15 C0 10.05 0 5.1 0 0 Z " fill="#EEEEEE" transform="translate(105,60)"/>
<path d="M0 0 C4.95 0 9.9 0 15 0 C15 4.95 15 9.9 15 15 C10.05 15 5.1 15 0 15 C0 10.05 0 5.1 0 0 Z " fill="#FFFFFF" transform="translate(90,60)"/>
<path d="M0 0 C4.95 0 9.9 0 15 0 C15 4.95 15 9.9 15 15 C10.05 15 5.1 15 0 15 C0 10.05 0 5.1 0 0 Z " fill="#EEEEEE" transform="translate(75,60)"/>
<path d="M0 0 C4.95 0 9.9 0 15 0 C15 4.95 15 9.9 15 15 C10.05 15 5.1 15 0 15 C0 10.05 0 5.1 0 0 Z " fill="#EEEEEE" transform="translate(15,60)"/>
<path d="M0 0 C4.95 0 9.9 0 15 0 C15 4.95 15 9.9 15 15 C10.05 15 5.1 15 0 15 C0 10.05 0 5.1 0 0 Z " fill="#FFFFFF" transform="translate(0,60)"/>
<path d="M0 0 C4.95 0 9.9 0 15 0 C15 4.95 15 9.9 15 15 C10.05 15 5.1 15 0 15 C0 10.05 0 5.1 0 0 Z " fill="#EEEEEE" transform="translate(330,45)"/>
<path d="M0 0 C4.95 0 9.9 0 15 0 C15 4.95 15 9.9 15 15 C10.05 15 5.1 15 0 15 C0 10.05 0 5.1 0 0 Z " fill="#FFFFFF" transform="translate(315,45)"/>
<path d="M0 0 C4.95 0 9.9 0 15 0 C15 4.95 15 9.9 15 15 C10.05 15 5.1 15 0 15 C0 10.05 0 5.1 0 0 Z " fill="#EEEEEE" transform="translate(240,45)"/>
<path d="M0 0 C4.95 0 9.9 0 15 0 C15 4.95 15 9.9 15 15 C10.05 15 5.1 15 0 15 C0 10.05 0 5.1 0 0 Z " fill="#FFFFFF" transform="translate(225,45)"/>
<path d="M0 0 C4.95 0 9.9 0 15 0 C15 4.95 15 9.9 15 15 C10.05 15 5.1 15 0 15 C0 10.05 0 5.1 0 0 Z " fill="#FFFFFF" transform="translate(195,45)"/>
<path d="M0 0 C4.95 0 9.9 0 15 0 C15 4.95 15 9.9 15 15 C10.05 15 5.1 15 0 15 C0 10.05 0 5.1 0 0 Z " fill="#EEEEEE" transform="translate(180,45)"/>
<path d="M0 0 C4.95 0 9.9 0 15 0 C15 4.95 15 9.9 15 15 C10.05 15 5.1 15 0 15 C0 10.05 0 5.1 0 0 Z " fill="#FFFFFF" transform="translate(165,45)"/>
<path d="M0 0 C4.95 0 9.9 0 15 0 C15 4.95 15 9.9 15 15 C10.05 15 5.1 15 0 15 C0 10.05 0 5.1 0 0 Z " fill="#EEEEEE" transform="translate(150,45)"/>
<path d="M0 0 C4.95 0 9.9 0 15 0 C15 4.95 15 9.9 15 15 C10.05 15 5.1 15 0 15 C0 10.05 0 5.1 0 0 Z " fill="#FFFFFF" transform="translate(135,45)"/>
<path d="M0 0 C4.95 0 9.9 0 15 0 C15 4.95 15 9.9 15 15 C10.05 15 5.1 15 0 15 C0 10.05 0 5.1 0 0 Z " fill="#EEEEEE" transform="translate(120,45)"/>
<path d="M0 0 C4.95 0 9.9 0 15 0 C15 4.95 15 9.9 15 15 C10.05 15 5.1 15 0 15 C0 10.05 0 5.1 0 0 Z " fill="#FFFFFF" transform="translate(105,45)"/>
<path d="M0 0 C4.95 0 9.9 0 15 0 C15 4.95 15 9.9 15 15 C10.05 15 5.1 15 0 15 C0 10.05 0 5.1 0 0 Z " fill="#EEEEEE" transform="translate(90,45)"/>
<path d="M0 0 C4.95 0 9.9 0 15 0 C15 4.95 15 9.9 15 15 C10.05 15 5.1 15 0 15 C0 10.05 0 5.1 0 0 Z " fill="#FFFFFF" transform="translate(15,45)"/>
<path d="M0 0 C4.95 0 9.9 0 15 0 C15 4.95 15 9.9 15 15 C10.05 15 5.1 15 0 15 C0 10.05 0 5.1 0 0 Z " fill="#EEEEEE" transform="translate(0,45)"/>
<path d="M0 0 C4.95 0 9.9 0 15 0 C15 4.95 15 9.9 15 15 C10.05 15 5.1 15 0 15 C0 10.05 0 5.1 0 0 Z " fill="#FFFFFF" transform="translate(330,30)"/>
<path d="M0 0 C4.95 0 9.9 0 15 0 C15 4.95 15 9.9 15 15 C10.05 15 5.1 15 0 15 C0 10.05 0 5.1 0 0 Z " fill="#EEEEEE" transform="translate(315,30)"/>
<path d="M0 0 C4.95 0 9.9 0 15 0 C15 4.95 15 9.9 15 15 C10.05 15 5.1 15 0 15 C0 10.05 0 5.1 0 0 Z " fill="#FFFFFF" transform="translate(300,30)"/>
<path d="M0 0 C4.95 0 9.9 0 15 0 C15 4.95 15 9.9 15 15 C10.05 15 5.1 15 0 15 C0 10.05 0 5.1 0 0 Z " fill="#FFFFFF" transform="translate(210,30)"/>
<path d="M0 0 C4.95 0 9.9 0 15 0 C15 4.95 15 9.9 15 15 C10.05 15 5.1 15 0 15 C0 10.05 0 5.1 0 0 Z " fill="#FFFFFF" transform="translate(180,30)"/>
<path d="M0 0 C4.95 0 9.9 0 15 0 C15 4.95 15 9.9 15 15 C10.05 15 5.1 15 0 15 C0 10.05 0 5.1 0 0 Z " fill="#EEEEEE" transform="translate(165,30)"/>
<path d="M0 0 C4.95 0 9.9 0 15 0 C15 4.95 15 9.9 15 15 C10.05 15 5.1 15 0 15 C0 10.05 0 5.1 0 0 Z " fill="#FFFFFF" transform="translate(150,30)"/>
<path d="M0 0 C4.95 0 9.9 0 15 0 C15 4.95 15 9.9 15 15 C10.05 15 5.1 15 0 15 C0 10.05 0 5.1 0 0 Z " fill="#FFFFFF" transform="translate(120,30)"/>
<path d="M0 0 C4.95 0 9.9 0 15 0 C15 4.95 15 9.9 15 15 C10.05 15 5.1 15 0 15 C0 10.05 0 5.1 0 0 Z " fill="#FFFFFF" transform="translate(30,30)"/>
<path d="M0 0 C4.95 0 9.9 0 15 0 C15 4.95 15 9.9 15 15 C10.05 15 5.1 15 0 15 C0 10.05 0 5.1 0 0 Z " fill="#EEEEEE" transform="translate(15,30)"/>
<path d="M0 0 C4.95 0 9.9 0 15 0 C15 4.95 15 9.9 15 15 C10.05 15 5.1 15 0 15 C0 10.05 0 5.1 0 0 Z " fill="#FFFFFF" transform="translate(0,30)"/>
<path d="M0 0 C4.95 0 9.9 0 15 0 C15 4.95 15 9.9 15 15 C10.05 15 5.1 15 0 15 C0 10.05 0 5.1 0 0 Z " fill="#EEEEEE" transform="translate(330,15)"/>
<path d="M0 0 C4.95 0 9.9 0 15 0 C15 4.95 15 9.9 15 15 C10.05 15 5.1 15 0 15 C0 10.05 0 5.1 0 0 Z " fill="#FFFFFF" transform="translate(315,15)"/>
<path d="M0 0 C4.95 0 9.9 0 15 0 C15 4.95 15 9.9 15 15 C10.05 15 5.1 15 0 15 C0 10.05 0 5.1 0 0 Z " fill="#FFFFFF" transform="translate(285,15)"/>
<path d="M0 0 C4.95 0 9.9 0 15 0 C15 4.95 15 9.9 15 15 C10.05 15 5.1 15 0 15 C0 10.05 0 5.1 0 0 Z " fill="#EEEEEE" transform="translate(60,15)"/>
<path d="M0 0 C4.95 0 9.9 0 15 0 C15 4.95 15 9.9 15 15 C10.05 15 5.1 15 0 15 C0 10.05 0 5.1 0 0 Z " fill="#FFFFFF" transform="translate(45,15)"/>
<path d="M0 0 C4.95 0 9.9 0 15 0 C15 4.95 15 9.9 15 15 C10.05 15 5.1 15 0 15 C0 10.05 0 5.1 0 0 Z " fill="#EEEEEE" transform="translate(30,15)"/>
<path d="M0 0 C4.95 0 9.9 0 15 0 C15 4.95 15 9.9 15 15 C10.05 15 5.1 15 0 15 C0 10.05 0 5.1 0 0 Z " fill="#FFFFFF" transform="translate(15,15)"/>
<path d="M0 0 C4.95 0 9.9 0 15 0 C15 4.95 15 9.9 15 15 C10.05 15 5.1 15 0 15 C0 10.05 0 5.1 0 0 Z " fill="#EEEEEE" transform="translate(0,15)"/>
<path d="M0 0 C4.95 0 9.9 0 15 0 C15 4.95 15 9.9 15 15 C10.05 15 5.1 15 0 15 C0 10.05 0 5.1 0 0 Z " fill="#FFFFFF" transform="translate(300,0)"/>
<path d="M0 0 C4.95 0 9.9 0 15 0 C15 4.95 15 9.9 15 15 C10.05 15 5.1 15 0 15 C0 10.05 0 5.1 0 0 Z " fill="#FFFFFF" transform="translate(270,0)"/>
<path d="M0 0 C4.95 0 9.9 0 15 0 C15 4.95 15 9.9 15 15 C10.05 15 5.1 15 0 15 C0 10.05 0 5.1 0 0 Z " fill="#EEEEEE" transform="translate(75,0)"/>
<path d="M0 0 C4.95 0 9.9 0 15 0 C15 4.95 15 9.9 15 15 C10.05 15 5.1 15 0 15 C0 10.05 0 5.1 0 0 Z " fill="#FFFFFF" transform="translate(60,0)"/>
<path d="M0 0 C4.95 0 9.9 0 15 0 C15 4.95 15 9.9 15 15 C10.05 15 5.1 15 0 15 C0 10.05 0 5.1 0 0 Z " fill="#EEEEEE" transform="translate(45,0)"/>
<path d="M0 0 C4.95 0 9.9 0 15 0 C15 4.95 15 9.9 15 15 C10.05 15 5.1 15 0 15 C0 10.05 0 5.1 0 0 Z " fill="#FFFFFF" transform="translate(30,0)"/>
<path d="M0 0 C4.95 0 9.9 0 15 0 C15 4.95 15 9.9 15 15 C10.05 15 5.1 15 0 15 C0 10.05 0 5.1 0 0 Z " fill="#FFFFFF" transform="translate(0,0)"/>
<path d="M0 0 C3.61328125 0.03255208 7.2265625 0.06510417 10.83984375 0.09765625 C10.83984375 5.04765625 10.83984375 9.99765625 10.83984375 15.09765625 C6.54984375 15.09765625 2.25984375 15.09765625 -2.16015625 15.09765625 C-2.49015625 16.08765625 -2.82015625 17.07765625 -3.16015625 18.09765625 C-4.37308908 12.48784191 -4.49127009 6.81423927 -4.16015625 1.09765625 C-3.16015625 0.09765625 -3.16015625 0.09765625 0 0 Z " fill="#EBEBEB" transform="translate(19.16015625,179.90234375)"/>
<path d="M0 0 C12.625 -0.25 12.625 -0.25 16 2 C15.67 6.29 15.34 10.58 15 15 C10.05 15 5.1 15 0 15 C0 10.05 0 5.1 0 0 Z " fill="#EDEDED" transform="translate(60,255)"/>
<path d="M0 0 C4.62 0 9.24 0 14 0 C16.13079691 4.26159382 15.04502317 10.40763702 15 15 C10.05 15 5.1 15 0 15 C0 10.05 0 5.1 0 0 Z " fill="#EEEEEE" transform="translate(45,240)"/>
<path d="M0 0 C4.95 0 9.9 0 15 0 C15 4.95 15 9.9 15 15 C10.38 15.33 5.76 15.66 1 16 C-0.11031666 10.4484167 -0.06806353 5.64927335 0 0 Z " fill="#EDEDED" transform="translate(315,60)"/>
<path d="M0 0 C0.66 0.33 1.32 0.66 2 1 C3.87811978 6.84303933 4.1911671 11.88265279 4 18 C-0.95 18 -5.9 18 -11 18 C-11 13.05 -11 8.1 -11 3 C-7.37 3 -3.74 3 0 3 C0 2.01 0 1.02 0 0 Z " fill="#FCFCFC" transform="translate(326,132)"/>
<path d="M0 0 C0 4.95 0 9.9 0 15 C-4.95 15 -9.9 15 -15 15 C-15.36734694 3.6122449 -15.36734694 3.6122449 -13.875 1.125 C-9.86165427 -1.28300744 -4.48263837 -0.14460124 0 0 Z " fill="#FFFFFF" transform="translate(150,195)"/>
<path d="M0 0 C4.62 0 9.24 0 14 0 C14 4.95 14 9.9 14 15 C9.38 15 4.76 15 0 15 C0 10.05 0 5.1 0 0 Z " fill="#EEEEEE" transform="translate(45,210)"/>
<path d="M0 0 C4.62 0 9.24 0 14 0 C14 4.95 14 9.9 14 15 C9.38 15 4.76 15 0 15 C0 10.05 0 5.1 0 0 Z " fill="#EEEEEE" transform="translate(76,180)"/>
<path d="M0 0 C4.62 0 9.24 0 14 0 C14 4.95 14 9.9 14 15 C9.38 15 4.76 15 0 15 C0 10.05 0 5.1 0 0 Z " fill="#EEEEEE" transform="translate(45,180)"/>
<path d="M0 0 C4.62 0 9.24 0 14 0 C14 4.95 14 9.9 14 15 C9.38 15 4.76 15 0 15 C0 10.05 0 5.1 0 0 Z " fill="#EEEEEE" transform="translate(76,150)"/>
<path d="M0 0 C4.62 0 9.24 0 14 0 C14 4.95 14 9.9 14 15 C9.38 15 4.76 15 0 15 C0 10.05 0 5.1 0 0 Z " fill="#EEEEEE" transform="translate(45,150)"/>
<path d="M0 0 C4.62 0 9.24 0 14 0 C14 4.95 14 9.9 14 15 C9.38 15 4.76 15 0 15 C0 10.05 0 5.1 0 0 Z " fill="#EEEEEE" transform="translate(45,120)"/>
<path d="M0 0 C9.9 0 19.8 0 30 0 C29.67 1.32 29.34 2.64 29 4 C28.154375 4.02578125 27.30875 4.0515625 26.4375 4.078125 C18.79360591 4.4603197 12.09858273 4.89090808 6.4765625 10.52734375 C5.25698685 11.96898086 4.12238949 13.48147304 3 15 C2.34 15.66 1.68 16.32 1 17 C0 16 0 16 -0.09765625 12.40234375 C-0.09191272 10.91402745 -0.07889891 9.42573704 -0.0625 7.9375 C-0.041875 5.318125 -0.02125 2.69875 0 0 Z " fill="#FBFBFB" transform="translate(60,90)"/>
<path d="M0 0 C0 4.95 0 9.9 0 15 C-4.95 15 -9.9 15 -15 15 C-15.48137776 9.78507431 -15.73795995 6.20517266 -12.5625 1.875 C-8.62109405 -2.23653858 -5.24063809 -1.19105411 0 0 Z " fill="#FEFEFE" transform="translate(240,165)"/>
<path d="M0 0 C4.95 0 9.9 0 15 0 C15 4.95 15 9.9 15 15 C6.16071429 15.66964286 6.16071429 15.66964286 2.4375 13.125 C-1.09245698 8.59941413 -0.45102724 5.63784056 0 0 Z " fill="#EEEEEE" transform="translate(285,30)"/>
<path d="M0 0 C7.92 0 15.84 0 24 0 C24 0.33 24 0.66 24 1 C21.03 1 18.06 1 15 1 C15 4.96 15 8.92 15 13 C10.05 13 5.1 13 0 13 C0 8.71 0 4.42 0 0 Z " fill="#FFFFFF" transform="translate(255,257)"/>
<path d="M0 0 C4.95 0 9.9 0 15 0 C15 4.95 15 9.9 15 15 C7.32352941 15.69786096 7.32352941 15.69786096 4.06640625 13.98046875 C1.47064762 11.72085153 0.1586427 10.04908883 -0.36328125 6.59765625 C-0.375 4.125 -0.375 4.125 0 0 Z " fill="#EEEEEE" transform="translate(300,45)"/>
<path d="M0 0 C2.97 0.33 5.94 0.66 9 1 C9 5.95 9 10.9 9 16 C4.05 16 -0.9 16 -6 16 C-5.19525189 11.17151132 -4.60225453 8.73248296 -2.4375 4.625 C-1.98246094 3.75101563 -1.52742188 2.87703125 -1.05859375 1.9765625 C-0.70925781 1.32429687 -0.35992187 0.67203125 0 0 Z " fill="#FCFCFC" transform="translate(336,239)"/>
<path d="M0 0 C4.29 0 8.58 0 13 0 C13 4.95 13 9.9 13 15 C9.37 15.33 5.74 15.66 2 16 C-0.30536555 10.52475681 -0.15802031 5.84675143 0 0 Z " fill="#FDFDFD" transform="translate(17,195)"/>
<path d="M0 0 C4.95 0 9.9 0 15 0 C15 3.3 15 6.6 15 10 C13.35 10.33 11.7 10.66 10 11 C10 11.66 10 12.32 10 13 C3.375 14 3.375 14 0 14 C0 9.38 0 4.76 0 0 Z " fill="#EEEEEE" transform="translate(210,315)"/>
<path d="M0 0 C4.95 0 9.9 0 15 0 C15 4.29 15 8.58 15 13 C8.78086399 14.03652267 7.32646358 13.76566378 2 11 C0 9 0 9 -0.1953125 6.8359375 C-0.13020833 4.55729167 -0.06510417 2.27864583 0 0 Z " fill="#ECECEC" transform="translate(120,315)"/>
<path d="M0 0 C4.29 0 8.58 0 13 0 C14.19587778 3.58763335 13.68815865 5.03021679 12.6875 8.625 C12.29111328 10.09839844 12.29111328 10.09839844 11.88671875 11.6015625 C11 14 11 14 9 15 C5.99525503 15.13559318 3.00931153 15.04299016 0 15 C0 10.05 0 5.1 0 0 Z " fill="#EDEDED" transform="translate(315,210)"/>
<path d="M0 0 C0.66 0.33 1.32 0.66 2 1 C1.67 1.33 1.34 1.66 1 2 C0.76807135 3.51469448 0.58784762 5.03754562 0.4375 6.5625 C0.293125 8.026875 0.14875 9.49125 0 11 C4.95 11 9.9 11 15 11 C15 15.62 15 20.24 15 25 C13.68 24.01 12.36 23.02 11 22 C10.37351563 21.8865625 9.74703125 21.773125 9.1015625 21.65625 C5.74629045 20.60850705 3.725703 17.99526495 1.375 15.5 C-1.95724215 11.79727917 -1.95724215 11.79727917 -6 9 C-5.52797514 4.75177626 -3.03344482 2.80010291 0 0 Z " fill="#EBEBEB" transform="translate(225,169)"/>
<path d="M0 0 C-0.33 4.62 -0.66 9.24 -1 14 C-5.95 14 -10.9 14 -16 14 C-16.66 11.36 -17.32 8.72 -18 6 C-15.56781941 4.80036357 -13.13029422 3.61515562 -10.6875 2.4375 C-9.99720703 2.09525391 -9.30691406 1.75300781 -8.59570312 1.40039062 C-3.33984375 -1.11328125 -3.33984375 -1.11328125 0 0 Z " fill="#FCFCFC" transform="translate(256,331)"/>
<path d="M0 0 C3.46679688 0.04882812 3.46679688 0.04882812 6.93359375 0.09765625 C6.93359375 5.04765625 6.93359375 9.99765625 6.93359375 15.09765625 C2.97359375 15.09765625 -0.98640625 15.09765625 -5.06640625 15.09765625 C-5.06640625 17.07765625 -5.06640625 19.05765625 -5.06640625 21.09765625 C-5.39640625 21.09765625 -5.72640625 21.09765625 -6.06640625 21.09765625 C-6.43099923 13.87331383 -6.05740475 7.76153893 -3.06640625 1.09765625 C-2.06640625 0.09765625 -2.06640625 0.09765625 0 0 Z " fill="#FBFBFB" transform="translate(23.06640625,134.90234375)"/>
<path d="M0 0 C0 4.29 0 8.58 0 13 C-4.95 13 -9.9 13 -15 13 C-15 9.04 -15 5.08 -15 1 C-9.92982987 0.45918185 -5.10415411 0 0 0 Z " fill="#ECECEC" transform="translate(195,17)"/>
<path d="M0 0 C4.95 0 9.9 0 15 0 C15 3.96 15 7.92 15 12 C10.05 12 5.1 12 0 12 C0 8.04 0 4.08 0 0 Z " fill="#EEEEEE" transform="translate(240,258)"/>
<path d="M0 0 C4.95 0 9.9 0 15 0 C15 3.96 15 7.92 15 12 C10.05 12 5.1 12 0 12 C0 8.04 0 4.08 0 0 Z " fill="#EEEEEE" transform="translate(210,258)"/>
<path d="M0 0 C4.95 0 9.9 0 15 0 C15 3.96 15 7.92 15 12 C10.05 12 5.1 12 0 12 C0 8.04 0 4.08 0 0 Z " fill="#EEEEEE" transform="translate(180,258)"/>
<path d="M0 0 C4.95 0 9.9 0 15 0 C15 3.96 15 7.92 15 12 C10.05 12 5.1 12 0 12 C0 8.04 0 4.08 0 0 Z " fill="#EEEEEE" transform="translate(150,258)"/>
<path d="M0 0 C4.95 0 9.9 0 15 0 C15 3.96 15 7.92 15 12 C10.05 12 5.1 12 0 12 C0 8.04 0 4.08 0 0 Z " fill="#EEEEEE" transform="translate(120,258)"/>
<path d="M0 0 C4.95 0 9.9 0 15 0 C15 3.96 15 7.92 15 12 C10.05 12 5.1 12 0 12 C0 8.04 0 4.08 0 0 Z " fill="#EEEEEE" transform="translate(90,258)"/>
<path d="M0 0 C9.9 0 19.8 0 30 0 C30 0.33 30 0.66 30 1 C25.05 1 20.1 1 15 1 C15 4.3 15 7.6 15 11 C10.05 11 5.1 11 0 11 C0 7.37 0 3.74 0 0 Z " fill="#FFFFFF" transform="translate(225,109)"/>
<path d="M0 0 C7.95598501 -0.48490202 15.39198542 0.58932096 23 3 C23.66 3.66 24.32 4.32 25 5 C22.03 4.505 22.03 4.505 19 4 C19 6.64 19 9.28 19 12 C14.05 12 9.1 12 4 12 C4 8.37 4 4.74 4 1 C2.68 0.67 1.36 0.34 0 0 Z " fill="#FCFCFC" transform="translate(191,18)"/>
<path d="M0 0 C0 3.96 0 7.92 0 12 C-4.95 12 -9.9 12 -15 12 C-15.29296875 3.6015625 -15.29296875 3.6015625 -15 1 C-10.18289257 -2.21140495 -5.65046231 -0.60757659 0 0 Z " fill="#ECECEC" transform="translate(165,18)"/>
<path d="M0 0 C4.95 0 9.9 0 15 0 C15 4.29 15 8.58 15 13 C10.07253501 12.49026224 5.61803076 11.91479324 1 10 C-0.60725635 6.78548731 -0.05748185 3.56387464 0 0 Z " fill="#EBEBEB" transform="translate(225,0)"/>
<path d="M0 0 C0 0.33 0 0.66 0 1 C-2.31 1 -4.62 1 -7 1 C-7 4.63 -7 8.26 -7 12 C-11.95 12 -16.9 12 -22 12 C-22.1953125 5.9453125 -22.1953125 5.9453125 -22 4 C-16.66248577 -1.33751423 -7.00560106 -0.23570247 0 0 Z " fill="#FBFBFB" transform="translate(157,18)"/>
<path d="M0 0 C2.64 0 5.28 0 8 0 C7.56225018 4.55259809 6.83397221 8.77570089 5.625 13.1875 C3.23953127 22.29458505 2.22195992 31.68009992 1 41 C0.67 41 0.34 41 0 41 C0 27.47 0 13.94 0 0 Z " fill="#F8F8F8" transform="translate(0,120)"/>
<path d="M0 0 C0.66 0.33 1.32 0.66 2 1 C2 2.65 2 4.3 2 6 C-18.46 6 -38.92 6 -60 6 C-60 5.67 -60 5.34 -60 5 C-59.21165771 4.9906543 -58.42331543 4.98130859 -57.61108398 4.97167969 C-41.7256246 4.73656152 -13.57395309 -4.37869454 0 0 Z " fill="#D2D2D2" transform="translate(223,344)"/>
<path d="M0 0 C1.19221916 0.00424484 1.19221916 0.00424484 2.40852356 0.00857544 C4.94567963 0.01976545 7.48248197 0.04486759 10.01953125 0.0703125 C11.74022927 0.08034384 13.46093284 0.08946942 15.18164062 0.09765625 C19.39857368 0.11970089 23.6152425 0.15422244 27.83203125 0.1953125 C27.83203125 1.1853125 27.83203125 2.1753125 27.83203125 3.1953125 C30.14203125 3.5253125 32.45203125 3.8553125 34.83203125 4.1953125 C34.83203125 4.5253125 34.83203125 4.8553125 34.83203125 5.1953125 C19.1711125 5.55560971 4.24204601 5.11730175 -11.16796875 2.1953125 C-7.37954402 -0.33030398 -4.38263546 -0.05860323 0 0 Z " fill="#E1E1E1" transform="translate(152.16796875,329.8046875)"/>
<path d="M0 0 C6 0 6 0 9 1 C9.984375 3.3984375 9.984375 3.3984375 10.75 6.375 C11.01296875 7.35210937 11.2759375 8.32921875 11.546875 9.3359375 C12 12 12 12 11 15 C7.37 15 3.74 15 0 15 C0 10.05 0 5.1 0 0 Z " fill="#EDEDED" transform="translate(315,120)"/>
<path d="M0 0 C4.95 0 9.9 0 15 0 C15 3.3 15 6.6 15 10 C10.05 10 5.1 10 0 10 C0 6.7 0 3.4 0 0 Z " fill="#EEEEEE" transform="translate(240,110)"/>
<path d="M0 0 C4.95 0 9.9 0 15 0 C15 3.3 15 6.6 15 10 C10.05 10 5.1 10 0 10 C0 6.7 0 3.4 0 0 Z " fill="#EEEEEE" transform="translate(210,110)"/>
<path d="M0 0 C4.95 0 9.9 0 15 0 C15 3.3 15 6.6 15 10 C10.05 10 5.1 10 0 10 C0 6.7 0 3.4 0 0 Z " fill="#EEEEEE" transform="translate(180,110)"/>
<path d="M0 0 C4.95 0 9.9 0 15 0 C15 3.3 15 6.6 15 10 C10.05 10 5.1 10 0 10 C0 6.7 0 3.4 0 0 Z " fill="#EEEEEE" transform="translate(150,110)"/>
<path d="M0 0 C4.95 0 9.9 0 15 0 C15 3.3 15 6.6 15 10 C10.05 10 5.1 10 0 10 C0 6.7 0 3.4 0 0 Z " fill="#EEEEEE" transform="translate(120,110)"/>
<path d="M0 0 C0.66 0.33 1.32 0.66 2 1 C1.67 5.95 1.34 10.9 1 16 C-6.25 16.4375 -6.25 16.4375 -8.51269531 16.56811523 C-11.77672382 16.77573835 -14.86545184 17.03863085 -18 18 C-14.24011823 13.39414483 -10.36303633 9.42876079 -5.8359375 5.578125 C-3.7854109 3.81554469 -1.87227771 1.95028928 0 0 Z " fill="#EBEBEB" transform="translate(104,224)"/>
<path d="M0 0 C2.57161458 0.03255208 5.14322917 0.06510417 7.71484375 0.09765625 C7.71484375 5.04765625 7.71484375 9.99765625 7.71484375 15.09765625 C1.71484375 15.09765625 1.71484375 15.09765625 -0.28515625 14.09765625 C-1.171875 11.19140625 -1.171875 11.19140625 -1.97265625 7.59765625 C-2.24464844 6.41171875 -2.51664063 5.22578125 -2.796875 4.00390625 C-2.95800781 3.04484375 -3.11914062 2.08578125 -3.28515625 1.09765625 C-2.28515625 0.09765625 -2.28515625 0.09765625 0 0 Z " fill="#EEEEEE" transform="translate(22.28515625,209.90234375)"/>
<path d="M0 0 C0 9.9 0 19.8 0 30 C-0.33 30 -0.66 30 -1 30 C-1 25.38 -1 20.76 -1 16 C-3.31 16 -5.62 16 -8 16 C-8 11.05 -8 6.1 -8 1 C-1 0 -1 0 0 0 Z " fill="#FFFFFF" transform="translate(278,179)"/>
<path d="M0 0 C2 2 2 2 2.22705078 4.43017578 C2.21134033 5.92266846 2.21134033 5.92266846 2.1953125 7.4453125 C2.18564453 9.05986328 2.18564453 9.05986328 2.17578125 10.70703125 C2.15902344 11.83496094 2.14226562 12.96289062 2.125 14.125 C2.11597656 15.26066406 2.10695313 16.39632812 2.09765625 17.56640625 C2.07403098 20.37781299 2.04109013 23.18880298 2 26 C-0.64 26 -3.28 26 -6 26 C-7.33487285 23.3302543 -6.69863162 22.38511884 -5.8203125 19.5703125 C-5.41619141 18.25353516 -5.41619141 18.25353516 -5.00390625 16.91015625 C-4.71386719 15.99105469 -4.42382812 15.07195312 -4.125 14.125 C-3.56443194 12.31531226 -3.00451225 10.50542352 -2.4453125 8.6953125 C-2.19281738 7.89109863 -1.94032227 7.08688477 -1.68017578 6.25830078 C-1.05527575 4.183525 -0.50570552 2.10660403 0 0 Z " fill="#ECECEC" transform="translate(343,214)"/>
<path d="M0 0 C0 3.63 0 7.26 0 11 C-4.95 11 -9.9 11 -15 11 C-15 6 -15 6 -14 4 C-11.78515625 3.18359375 -11.78515625 3.18359375 -9.0625 2.4375 C-0.28497409 0 -0.28497409 0 0 0 Z " fill="#ECECEC" transform="translate(195,199)"/>
<path d="M0 0 C4.95 0 9.9 0 15 0 C15 1.32 15 2.64 15 4 C15.99 4.33 16.98 4.66 18 5 C12.12003942 7.1233191 6.06706475 8.52741147 0 10 C0 6.7 0 3.4 0 0 Z " fill="#FAFAFA" transform="translate(120,0)"/>
<path d="M0 0 C3.96 0 7.92 0 12 0 C12 4.62 12 9.24 12 14 C9 14 9 14 6.9921875 12.20703125 C6.29351562 11.41683594 5.59484375 10.62664062 4.875 9.8125 C4.17117187 9.03519531 3.46734375 8.25789063 2.7421875 7.45703125 C1 5 1 5 0 0 Z " fill="#ECECEC" transform="translate(48,270)"/>
<path d="M0 0 C4.62 0 9.24 0 14 0 C14 4.29 14 8.58 14 13 C11 13 11 13 8.80859375 10.91796875 C8.02613281 10.01691406 7.24367188 9.11585938 6.4375 8.1875 C5.65246094 7.29417969 4.86742188 6.40085937 4.05859375 5.48046875 C2 3 2 3 0 0 Z " fill="#EEEEEE" transform="translate(61,285)"/>
<path d="M0 0 C2.31 0 4.62 0 7 0 C7 4.95 7 9.9 7 15 C5.02 15 3.04 15 1 15 C0.67 15.66 0.34 16.32 0 17 C0 11.39 0 5.78 0 0 Z " fill="#FFFFFF" transform="translate(293,225)"/>
<path d="M0 0 C4.95 0 9.9 0 15 0 C15 2.64 15 5.28 15 8 C15.99 8.33 16.98 8.66 18 9 C2.28571429 7.28571429 2.28571429 7.28571429 0 5 C0 3.35 0 1.7 0 0 Z " fill="#F9F9F9" transform="translate(210,0)"/>
<path d="M0 0 C2.31 0 4.62 0 7 0 C7 4.95 7 9.9 7 15 C4.69 15 2.38 15 0 15 C0 10.05 0 5.1 0 0 Z " fill="#EEEEEE" transform="translate(270,195)"/>
<path d="M0 0 C2.31 0 4.62 0 7 0 C7 4.95 7 9.9 7 15 C4.69 15 2.38 15 0 15 C0 10.05 0 5.1 0 0 Z " fill="#EEEEEE" transform="translate(270,165)"/>
<path d="M0 0 C2.31 0 4.62 0 7 0 C7 4.95 7 9.9 7 15 C4.69 15 2.38 15 0 15 C0 10.05 0 5.1 0 0 Z " fill="#EEEEEE" transform="translate(270,135)"/>
<path d="M0 0 C-1.58015623 1.60729631 -3.16425652 3.21071576 -4.75 4.8125 C-5.63171875 5.70582031 -6.5134375 6.59914062 -7.421875 7.51953125 C-9.53448851 9.55212152 -11.60794665 11.31773818 -14 13 C-14.66 12.67 -15.32 12.34 -16 12 C-15.67 8.04 -15.34 4.08 -15 0 C-12.87562788 -0.19448477 -10.75046809 -0.38038289 -8.625 -0.5625 C-7.44164062 -0.66691406 -6.25828125 -0.77132812 -5.0390625 -0.87890625 C-2 -1 -2 -1 0 0 Z " fill="#FAFAFA" transform="translate(240,135)"/>
<path d="M0 0 C3.3 0 6.6 0 10 0 C9.61329288 5.28499735 7.78112595 9.30040776 4 13 C2.68 13.33 1.36 13.66 0 14 C0 9.38 0 4.76 0 0 Z " fill="#ECECEC" transform="translate(300,255)"/>
<path d="M0 0 C0.66 0.33 1.32 0.66 2 1 C2 4.96 2 8.92 2 13 C-1.96 13 -5.92 13 -10 13 C-9.34 12.236875 -8.68 11.47375 -8 10.6875 C-5.70149462 8.15722061 -5.70149462 8.15722061 -6 5 C-4.17806158 3.0750353 -2.10764717 1.62464469 0 0 Z " fill="#EBEBEB" transform="translate(118,212)"/>
<path d="M0 0 C6.27 0.33 12.54 0.66 19 1 C17.68 1.33 16.36 1.66 15 2 C15 3.65 15 5.3 15 7 C10.05 7 5.1 7 0 7 C0 4.69 0 2.38 0 0 Z " fill="#FEFEFE" transform="translate(165,203)"/>
<path d="M0 0 C4.62 0 9.24 0 14 0 C14 4.29 14 8.58 14 13 C8.46999841 9.09086094 4.22897452 5.28621815 0 0 Z " fill="#EEEEEE" transform="translate(241,195)"/>
<path d="M0 0 C5.66433566 3.65034965 5.66433566 3.65034965 7.5 5.5625 C9.6916328 7.66281477 12.26969437 8.72585737 15 10 C14.67 10.66 14.34 11.32 14 12 C9.38 12 4.76 12 0 12 C0 8.04 0 4.08 0 0 Z " fill="#EEEEEE" transform="translate(90,138)"/>
<path d="M0 0 C0 4.29 0 8.58 0 13 C-3.96 12.67 -7.92 12.34 -12 12 C-12 9 -12 9 -9.8828125 6.73828125 C-8.97273438 5.93777344 -8.06265625 5.13726562 -7.125 4.3125 C-5.76761719 3.10013672 -5.76761719 3.10013672 -4.3828125 1.86328125 C-2 0 -2 0 0 0 Z " fill="#FCFCFC" transform="translate(278,123)"/>
<path d="M0 0 C4.29 0 8.58 0 13 0 C8.88380164 4.91935902 4.59589638 9.52647956 0 14 C-2.01362453 9.97275094 -0.41158984 4.29882718 0 0 Z " fill="#FEFEFE" transform="translate(45,45)"/>
<path d="M0 0 C1.98 0 3.96 0 6 0 C6 4.95 6 9.9 6 15 C4.02 15 2.04 15 0 15 C0 10.05 0 5.1 0 0 Z " fill="#EFEFEF" transform="translate(294,210)"/>
<path d="M0 0 C1.98 0 3.96 0 6 0 C6 4.95 6 9.9 6 15 C4.02 15 2.04 15 0 15 C0 10.05 0 5.1 0 0 Z " fill="#EFEFEF" transform="translate(294,180)"/>
<path d="M0 0 C1.98 0 3.96 0 6 0 C6 4.95 6 9.9 6 15 C4.02 15 2.04 15 0 15 C0 10.05 0 5.1 0 0 Z " fill="#EFEFEF" transform="translate(294,150)"/>
<path d="M0 0 C1.98 0 3.96 0 6 0 C6 4.95 6 9.9 6 15 C4.02 15 2.04 15 0 15 C0 10.05 0 5.1 0 0 Z " fill="#EFEFEF" transform="translate(294,120)"/>
<path d="M0 0 C0 1.98 0 3.96 0 6 C-5.94 6 -11.88 6 -18 6 C-17.67 5.01 -17.34 4.02 -17 3 C-14.453125 1.796875 -14.453125 1.796875 -11.25 0.75 C-10.20328125 0.39421875 -9.1565625 0.0384375 -8.078125 -0.328125 C-4.92800145 -1.01571542 -3.06482187 -0.88539298 0 0 Z " fill="#EAEAEA" transform="translate(240,339)"/>
<path d="M0 0 C1.546875 1.3303125 1.546875 1.3303125 3.125 2.6875 C6.39205431 5.48878282 9.6873127 8.25289346 13 11 C12.67 11.66 12.34 12.32 12 13 C8.37 13 4.74 13 1 13 C0.67 8.71 0.34 4.42 0 0 Z " fill="#EFEFEF" transform="translate(75,122)"/>
<path d="M0 0 C0 4.62 0 9.24 0 14 C-7.625 15 -7.625 15 -11 15 C-9.71481447 12.68367725 -8.42228734 10.37203058 -7.125 8.0625 C-6.76019531 7.40314453 -6.39539063 6.74378906 -6.01953125 6.06445312 C-2.59855769 0 -2.59855769 0 0 0 Z " fill="#F9F9F9" transform="translate(330,256)"/>
<path d="M0 0 C4.29 0 8.58 0 13 0 C13 3.96 13 7.92 13 12 C7.87602169 8.35242222 3.8089467 4.99924254 0 0 Z " fill="#EEEEEE" transform="translate(257,210)"/>
<path d="M0 0 C3.96 0 7.92 0 12 0 C10.15117797 3.69764405 9.01842239 5.15326897 6 7.75 C4.948125 8.67039063 4.948125 8.67039063 3.875 9.609375 C2 11 2 11 0 11 C0 7.37 0 3.74 0 0 Z " fill="#FAFAFA" transform="translate(210,150)"/>
<path d="M0 0 C4.95 0 9.9 0 15 0 C15 1.65 15 3.3 15 5 C10.05 5 5.1 5 0 5 C0 3.35 0 1.7 0 0 Z " fill="#EEEEEE" transform="translate(330,345)"/>
<path d="M0 0 C4.95 0 9.9 0 15 0 C15 1.65 15 3.3 15 5 C10.05 5 5.1 5 0 5 C0 3.35 0 1.7 0 0 Z " fill="#FFFFFF" transform="translate(315,345)"/>
<path d="M0 0 C4.95 0 9.9 0 15 0 C15 1.65 15 3.3 15 5 C10.05 5 5.1 5 0 5 C0 3.35 0 1.7 0 0 Z " fill="#EEEEEE" transform="translate(300,345)"/>
<path d="M0 0 C4.95 0 9.9 0 15 0 C15 1.65 15 3.3 15 5 C10.05 5 5.1 5 0 5 C0 3.35 0 1.7 0 0 Z " fill="#FFFFFF" transform="translate(285,345)"/>
<path d="M0 0 C4.95 0 9.9 0 15 0 C15 1.65 15 3.3 15 5 C10.05 5 5.1 5 0 5 C0 3.35 0 1.7 0 0 Z " fill="#EEEEEE" transform="translate(270,345)"/>
<path d="M0 0 C4.95 0 9.9 0 15 0 C15 1.65 15 3.3 15 5 C10.05 5 5.1 5 0 5 C0 3.35 0 1.7 0 0 Z " fill="#FFFFFF" transform="translate(255,345)"/>
<path d="M0 0 C4.95 0 9.9 0 15 0 C15 1.65 15 3.3 15 5 C10.05 5 5.1 5 0 5 C0 3.35 0 1.7 0 0 Z " fill="#FFFFFF" transform="translate(225,345)"/>
<path d="M0 0 C4.95 0 9.9 0 15 0 C15 1.65 15 3.3 15 5 C10.05 5 5.1 5 0 5 C0 3.35 0 1.7 0 0 Z " fill="#FFFFFF" transform="translate(105,345)"/>
<path d="M0 0 C4.95 0 9.9 0 15 0 C15 1.65 15 3.3 15 5 C10.05 5 5.1 5 0 5 C0 3.35 0 1.7 0 0 Z " fill="#EEEEEE" transform="translate(90,345)"/>
<path d="M0 0 C4.95 0 9.9 0 15 0 C15 1.65 15 3.3 15 5 C10.05 5 5.1 5 0 5 C0 3.35 0 1.7 0 0 Z " fill="#FFFFFF" transform="translate(75,345)"/>
<path d="M0 0 C4.95 0 9.9 0 15 0 C15 1.65 15 3.3 15 5 C10.05 5 5.1 5 0 5 C0 3.35 0 1.7 0 0 Z " fill="#EEEEEE" transform="translate(60,345)"/>
<path d="M0 0 C4.95 0 9.9 0 15 0 C15 1.65 15 3.3 15 5 C10.05 5 5.1 5 0 5 C0 3.35 0 1.7 0 0 Z " fill="#FFFFFF" transform="translate(45,345)"/>
<path d="M0 0 C4.95 0 9.9 0 15 0 C15 1.65 15 3.3 15 5 C10.05 5 5.1 5 0 5 C0 3.35 0 1.7 0 0 Z " fill="#EEEEEE" transform="translate(30,345)"/>
<path d="M0 0 C4.95 0 9.9 0 15 0 C15 1.65 15 3.3 15 5 C10.05 5 5.1 5 0 5 C0 3.35 0 1.7 0 0 Z " fill="#EEEEEE" transform="translate(0,345)"/>
<path d="M0 0 C4.12417063 1.6616804 7.06554039 4.62338018 10.25 7.625 C10.80429687 8.140625 11.35859375 8.65625 11.9296875 9.1875 C13.2902712 10.45425035 14.64565837 11.72657815 16 13 C11.70272603 14.30660357 8.39784135 13.6596762 4 13 C3.96261719 12.37351563 3.92523438 11.74703125 3.88671875 11.1015625 C3.82097656 10.28429687 3.75523437 9.46703125 3.6875 8.625 C3.62949219 7.81289062 3.57148438 7.00078125 3.51171875 6.1640625 C3.17009472 3.62078662 3.17009472 3.62078662 0 2 C0 1.34 0 0.68 0 0 Z " fill="#F5F5F5" transform="translate(251,228)"/>
<path d="M0 0 C4.08963819 2.28538605 7.46362104 4.95706926 11 8 C10.67 8.66 10.34 9.32 10 10 C6.37 10 2.74 10 -1 10 C-1.09765625 3.06640625 -1.09765625 3.06640625 -1 1 C-0.67 0.67 -0.34 0.34 0 0 Z " fill="#ECECEC" transform="translate(271,50)"/>
<path d="M0 0 C3.96 0 7.92 0 12 0 C12 2.97 12 5.94 12 9 C7.59061785 8.49607061 5.21156184 7.0379639 2 4 C1.34 2.68 0.68 1.36 0 0 Z " fill="#ECECEC" transform="translate(78,300)"/>
<path d="M0 0 C0.66 0.33 1.32 0.66 2 1 C1.67 3.64 1.34 6.28 1 9 C-3.29 9 -7.58 9 -12 9 C-12 8.34 -12 7.68 -12 7 C-9.4453125 5.23828125 -9.4453125 5.23828125 -6.125 3.3125 C-5.03445313 2.66925781 -3.94390625 2.02601563 -2.8203125 1.36328125 C-1.88960938 0.91339844 -0.95890625 0.46351563 0 0 Z " fill="#F8F8F8" transform="translate(269,321)"/>
<path d="M0 0 C1.32 0 2.64 0 4 0 C4 10.56 4 21.12 4 32 C3.67 32 3.34 32 3 32 C0.80851064 10.46808511 0.80851064 10.46808511 0 0 Z " fill="#E3E3E3" transform="translate(344,135)"/>
<path d="M0 0 C6.48122588 -0.18343092 12.59888223 0.5199668 19 1.5 C19.96550781 1.64308594 20.93101562 1.78617187 21.92578125 1.93359375 C24.28467335 2.28392426 26.64264545 2.6394935 29 3 C29 3.33 29 3.66 29 4 C19.76 4 10.52 4 1 4 C0.67 2.68 0.34 1.36 0 0 Z " fill="#F0F0F0" transform="translate(134,346)"/>
<path d="M0 0 C3.63 0 7.26 0 11 0 C4.08792373 8.14088983 4.08792373 8.14088983 2 10 C1.34 10 0.68 10 0 10 C0 6.7 0 3.4 0 0 Z " fill="#FBFBFB" transform="translate(195,165)"/>
<path d="M0 0 C0.99 1.32 1.98 2.64 3 4 C4.00962421 5.2177147 5.03023841 6.42641494 6.0625 7.625 C6.56910156 8.21539062 7.07570313 8.80578125 7.59765625 9.4140625 C8.6891314 10.64843273 9.83488458 11.83488458 11 13 C7.53278671 14.73360665 3.76147685 13.48361845 0 13 C0 8.71 0 4.42 0 0 Z " fill="#F6F6F6" transform="translate(60,242)"/>
<path d="M0 0 C0.66 0.33 1.32 0.66 2 1 C-7.88945466 11.70105125 -7.88945466 11.70105125 -15.4375 12.25 C-16.283125 12.1675 -17.12875 12.085 -18 12 C-14.25 10 -14.25 10 -12 10 C-12 8.02 -12 6.04 -12 4 C-11.38511719 3.96261719 -10.77023438 3.92523438 -10.13671875 3.88671875 C-8.92435547 3.78810547 -8.92435547 3.78810547 -7.6875 3.6875 C-6.88699219 3.62949219 -6.08648437 3.57148438 -5.26171875 3.51171875 C-2.63727666 2.91793306 -1.69179328 2.04219706 0 0 Z " fill="#F7F7F7" transform="translate(192,176)"/>
<path d="M0 0 C4.41309542 3.15221101 7.00793014 6.55463907 10 11 C6.7 11 3.4 11 0 11 C0 7.37 0 3.74 0 0 Z " fill="#EEEEEE" transform="translate(285,64)"/>
<path d="M0 0 C2.31 0 4.62 0 7 0 C7 3.63 7 7.26 7 11 C2.80238746 8.90119373 1.93973636 8.07344636 0 4 C0 2.68 0 1.36 0 0 Z " fill="#ECECEC" transform="translate(38,255)"/>
<path d="M0 0 C-1.45217676 1.50596108 -2.91192861 3.00462104 -4.375 4.5 C-5.18710938 5.3353125 -5.99921875 6.170625 -6.8359375 7.03125 C-9 9 -9 9 -11 9 C-11 6.03 -11 3.06 -11 0 C-2.25 -1.125 -2.25 -1.125 0 0 Z " fill="#FCFCFC" transform="translate(131,180)"/>
<path d="M0 0 C0.99 0 1.98 0 3 0 C3.88390942 3.60623747 4.00321864 6.41901445 3.44140625 10.08203125 C3.30283203 11.01337891 3.16425781 11.94472656 3.02148438 12.90429688 C2.87001953 13.86400391 2.71855469 14.82371094 2.5625 15.8125 C2.41490234 16.79154297 2.26730469 17.77058594 2.11523438 18.77929688 C1.75107276 21.18746241 1.37910187 23.59414901 1 26 C0.67 26 0.34 26 0 26 C0 17.42 0 8.84 0 0 Z " fill="#ECECEC" transform="translate(0,135)"/>
<path d="M0 0 C2.62697064 -0.22137393 5.00893964 -0.28162025 7.625 -0.1875 C8.33140625 -0.17396484 9.0378125 -0.16042969 9.765625 -0.14648438 C11.51074128 -0.1111104 13.25546608 -0.05730221 15 0 C15 1.65 15 3.3 15 5 C9.39 4.34 3.78 3.68 -2 3 C-1.34 2.01 -0.68 1.02 0 0 Z " fill="#E4E4E4" transform="translate(195,0)"/>
<path d="M0 0 C3.9252025 3.70090521 6.94580156 7.54959656 10 12 C6.93109813 13.53445094 4.29905734 12.54984289 1 12 C0.67 8.04 0.34 4.08 0 0 Z " fill="#F7F7F7" transform="translate(29,273)"/>
<path d="M0 0 C0.33 0 0.66 0 1 0 C1 4.95 1 9.9 1 15 C5.44607497 13.22157001 6.9797308 12.35585467 10 9 C10.66 9.33 11.32 9.66 12 10 C10.0238076 12.00301854 8.04425526 14.00249867 6.0625 16 C5.49853516 16.57234375 4.93457031 17.1446875 4.35351562 17.734375 C2.92121224 19.17525505 1.46258871 20.58987143 0 22 C-0.33 22 -0.66 22 -1 22 C-0.67 14.74 -0.34 7.48 0 0 Z " fill="#F4F4F4" transform="translate(76,210)"/>
<path d="M0 0 C0 2.64 0 5.28 0 8 C-2.97851562 8.29296875 -2.97851562 8.29296875 -5.95703125 8.5859375 C-8.29988142 8.92665391 -8.29988142 8.92665391 -11 11 C-9.65319085 8.08728356 -8.12551255 5.70671723 -6.0625 3.25 C-5.55847656 2.63640625 -5.05445313 2.0228125 -4.53515625 1.390625 C-3 0 -3 0 0 0 Z " fill="#EBEBEB" transform="translate(60,67)"/>
<path d="M0 0 C4.95 0 9.9 0 15 0 C15 0.66 15 1.32 15 2 C12.03195838 3.97869441 10.90215354 4.34161439 7.5 4.6875 C6.7265625 4.77386719 5.953125 4.86023438 5.15625 4.94921875 C3 5 3 5 0 4 C0 2.68 0 1.36 0 0 Z " fill="#E7E7E7" transform="translate(135,0)"/>
<path d="M0 0 C3.96 0 7.92 0 12 0 C11 3 11 3 7.6875 4.6875 C4 6 4 6 0 6 C0 4.02 0 2.04 0 0 Z " fill="#ECECEC" transform="translate(90,15)"/>
<path d="M0 0 C0.66 0.33 1.32 0.66 2 1 C1.67 1.33 1.34 1.66 1 2 C0.76924918 3.34747084 0.58846937 4.70377565 0.4375 6.0625 C0.293125 7.361875 0.14875 8.66125 0 10 C-2.64 10 -5.28 10 -8 10 C-8 7 -8 7 -6.25 5.17578125 C-5.5075 4.56089844 -4.765 3.94601563 -4 3.3125 C-3.2575 2.68988281 -2.515 2.06726562 -1.75 1.42578125 C-1.1725 0.95527344 -0.595 0.48476563 0 0 Z " fill="#E8E8E8" transform="translate(75,50)"/>
<path d="M0 0 C0.66 0.33 1.32 0.66 2 1 C-0.23243929 3.51617857 -2.48863647 6.00980802 -4.75 8.5 C-5.38421875 9.21542969 -6.0184375 9.93085938 -6.671875 10.66796875 C-7.6 11.68310547 -7.6 11.68310547 -8.546875 12.71875 C-9.11245117 13.34716797 -9.67802734 13.97558594 -10.26074219 14.62304688 C-12 16 -12 16 -16 16 C-12.21309138 11.36103694 -8.30424428 7.3506875 -3.734375 3.48046875 C-1.91019463 1.96268408 -1.91019463 1.96268408 0 0 Z " fill="#E8E8E8" transform="translate(138,193)"/>
<path d="M0 0 C5.14595054 0.57618751 9.55078055 1.74743278 14.4375 3.5625 C15.67371094 4.01753906 16.90992188 4.47257812 18.18359375 4.94140625 C19.11300781 5.29074219 20.04242188 5.64007813 21 6 C21 6.33 21 6.66 21 7 C16.71 7 12.42 7 8 7 C8 5.68 8 4.36 8 3 C7.05125 2.87625 6.1025 2.7525 5.125 2.625 C2 2 2 2 0 0 Z " fill="#F7F7F7" transform="translate(217,23)"/>
<path d="M0 0 C0.66 0.33 1.32 0.66 2 1 C0.54782324 2.50596108 -0.91192861 4.00462104 -2.375 5.5 C-3.18710938 6.3353125 -3.99921875 7.170625 -4.8359375 8.03125 C-7 10 -7 10 -9 10 C-9 7.36 -9 4.72 -9 2 C-6.94921875 1.77213542 -4.8984375 1.54427083 -2.84765625 1.31640625 C-0.98859771 1.18113386 -0.98859771 1.18113386 0 0 Z " fill="#FBFBFB" transform="translate(114,193)"/>
<path d="M0 0 C4.95 0 9.9 0 15 0 C15 0.99 15 1.98 15 3 C10.05 3 5.1 3 0 3 C0 2.01 0 1.02 0 0 Z " fill="#EEEEEE" transform="translate(165,330)"/>
<path d="M0 0 C0.99 0 1.98 0 3 0 C3 4.95 3 9.9 3 15 C2.01 15 1.02 15 0 15 C0 10.05 0 5.1 0 0 Z " fill="#FFFFFF" transform="translate(345,315)"/>
<path d="M0 0 C0.99 0 1.98 0 3 0 C3 4.95 3 9.9 3 15 C2.01 15 1.02 15 0 15 C0 10.05 0 5.1 0 0 Z " fill="#EEEEEE" transform="translate(345,300)"/>
<path d="M0 0 C0.99 0 1.98 0 3 0 C3 4.95 3 9.9 3 15 C2.01 15 1.02 15 0 15 C0 10.05 0 5.1 0 0 Z " fill="#FFFFFF" transform="translate(345,285)"/>
<path d="M0 0 C0.99 0 1.98 0 3 0 C3 4.95 3 9.9 3 15 C2.01 15 1.02 15 0 15 C0 10.05 0 5.1 0 0 Z " fill="#EEEEEE" transform="translate(345,270)"/>
<path d="M0 0 C0.99 0 1.98 0 3 0 C3 4.95 3 9.9 3 15 C2.01 15 1.02 15 0 15 C0 10.05 0 5.1 0 0 Z " fill="#FFFFFF" transform="translate(345,255)"/>
<path d="M0 0 C0.99 0 1.98 0 3 0 C3 4.95 3 9.9 3 15 C2.01 15 1.02 15 0 15 C0 10.05 0 5.1 0 0 Z " fill="#EEEEEE" transform="translate(345,240)"/>
<path d="M0 0 C0.99 0 1.98 0 3 0 C3 4.95 3 9.9 3 15 C2.01 15 1.02 15 0 15 C0 10.05 0 5.1 0 0 Z " fill="#FFFFFF" transform="translate(345,225)"/>
<path d="M0 0 C0.99 0 1.98 0 3 0 C3 4.95 3 9.9 3 15 C2.01 15 1.02 15 0 15 C0 10.05 0 5.1 0 0 Z " fill="#EEEEEE" transform="translate(345,120)"/>
<path d="M0 0 C0.99 0 1.98 0 3 0 C3 4.95 3 9.9 3 15 C2.01 15 1.02 15 0 15 C0 10.05 0 5.1 0 0 Z " fill="#FFFFFF" transform="translate(345,105)"/>
<path d="M0 0 C0.99 0 1.98 0 3 0 C3 4.95 3 9.9 3 15 C2.01 15 1.02 15 0 15 C0 10.05 0 5.1 0 0 Z " fill="#EEEEEE" transform="translate(345,90)"/>
<path d="M0 0 C4.95 0 9.9 0 15 0 C15 0.99 15 1.98 15 3 C10.05 3 5.1 3 0 3 C0 2.01 0 1.02 0 0 Z " fill="#EEEEEE" transform="translate(255,90)"/>
<path d="M0 0 C4.95 0 9.9 0 15 0 C15 0.99 15 1.98 15 3 C10.05 3 5.1 3 0 3 C0 2.01 0 1.02 0 0 Z " fill="#EEEEEE" transform="translate(225,90)"/>
<path d="M0 0 C4.95 0 9.9 0 15 0 C15 0.99 15 1.98 15 3 C10.05 3 5.1 3 0 3 C0 2.01 0 1.02 0 0 Z " fill="#EEEEEE" transform="translate(195,90)"/>
<path d="M0 0 C4.95 0 9.9 0 15 0 C15 0.99 15 1.98 15 3 C10.05 3 5.1 3 0 3 C0 2.01 0 1.02 0 0 Z " fill="#EEEEEE" transform="translate(165,90)"/>
<path d="M0 0 C4.95 0 9.9 0 15 0 C15 0.99 15 1.98 15 3 C10.05 3 5.1 3 0 3 C0 2.01 0 1.02 0 0 Z " fill="#EEEEEE" transform="translate(135,90)"/>
<path d="M0 0 C4.95 0 9.9 0 15 0 C15 0.99 15 1.98 15 3 C10.05 3 5.1 3 0 3 C0 2.01 0 1.02 0 0 Z " fill="#EEEEEE" transform="translate(105,90)"/>
<path d="M0 0 C4.95 0 9.9 0 15 0 C15 0.99 15 1.98 15 3 C10.05 3 5.1 3 0 3 C0 2.01 0 1.02 0 0 Z " fill="#EEEEEE" transform="translate(75,90)"/>
<path d="M0 0 C0.99 0 1.98 0 3 0 C3 4.95 3 9.9 3 15 C2.01 15 1.02 15 0 15 C0 10.05 0 5.1 0 0 Z " fill="#FFFFFF" transform="translate(345,75)"/>
<path d="M0 0 C0.99 0 1.98 0 3 0 C3 4.95 3 9.9 3 15 C2.01 15 1.02 15 0 15 C0 10.05 0 5.1 0 0 Z " fill="#EEEEEE" transform="translate(345,60)"/>
<path d="M0 0 C0.99 0 1.98 0 3 0 C3 4.95 3 9.9 3 15 C2.01 15 1.02 15 0 15 C0 10.05 0 5.1 0 0 Z " fill="#EEEEEE" transform="translate(345,30)"/>
<path d="M0 0 C0.99 0 1.98 0 3 0 C3 4.95 3 9.9 3 15 C2.01 15 1.02 15 0 15 C0 10.05 0 5.1 0 0 Z " fill="#EEEEEE" transform="translate(345,0)"/>
<path d="M0 0 C5.29012124 4.40843437 10.18808428 9.07559794 15 14 C14.01 14 13.02 14 12 14 C11.401875 13.360625 10.80375 12.72125 10.1875 12.0625 C7.49796404 9.52665181 5.61713638 9.32883058 2 9 C1.34 6.03 0.68 3.06 0 0 Z " fill="#FDFDFD" transform="translate(43,291)"/>
<path d="M0 0 C2.99220268 1.36370299 5.29026529 2.94908083 7.75 5.125 C8.67039063 5.93324219 8.67039063 5.93324219 9.609375 6.7578125 C10.06828125 7.16773438 10.5271875 7.57765625 11 8 C10.34 8.66 9.68 9.32 9 10 C8.67 9.67 8.34 9.34 8 9 C5.67182036 8.63239269 3.3381615 8.29758419 1 8 C0.67 5.36 0.34 2.72 0 0 Z " fill="#F4F4F4" transform="translate(239,217)"/>
<path d="M0 0 C6.27 0 12.54 0 19 0 C19 0.33 19 0.66 19 1 C14.05 1 9.1 1 4 1 C5.65 2.65 7.3 4.3 9 6 C10.02813611 7.31175986 11.04084432 8.6369893 12 10 C9 10 9 10 7.24609375 8.50390625 C6.64925781 7.86324219 6.05242187 7.22257812 5.4375 6.5625 C2.99710571 3.9103837 2.99710571 3.9103837 0 2 C0 1.34 0 0.68 0 0 Z " fill="#F3F3F3" transform="translate(86,109)"/>
<path d="M0 0 C0.66 0.33 1.32 0.66 2 1 C0.38113585 2.67262717 -1.2452729 4.33795537 -2.875 6 C-3.77992187 6.928125 -4.68484375 7.85625 -5.6171875 8.8125 C-8 11 -8 11 -10 11 C-10 8.69 -10 6.38 -10 4 C-8.906875 3.896875 -7.81375 3.79375 -6.6875 3.6875 C-3.14440371 3.02692273 -2.06756277 2.7972908 0 0 Z " fill="#F9F9F9" transform="translate(100,206)"/>
<path d="M0 0 C1.65 0 3.3 0 5 0 C5.6875 1.625 5.6875 1.625 6 4 C4.5625 7.25 4.5625 7.25 3 10 C2.01 10 1.02 10 0 10 C0 6.7 0 3.4 0 0 Z " fill="#E7E7E7" transform="translate(15,90)"/>
<path d="M0 0 C4.14648122 2.07324061 5.08477197 2.96794098 7 7 C6.67 7.66 6.34 8.32 6 9 C4.02 9 2.04 9 0 9 C0 6.03 0 3.06 0 0 Z " fill="#EDEDED" transform="translate(300,81)"/>
<path d="M0 0 C-2.27771895 2.80844958 -3.36197888 3.91735478 -7.015625 4.390625 C-8.61664063 4.32101562 -8.61664063 4.32101562 -10.25 4.25 C-11.32765625 4.21390625 -12.4053125 4.1778125 -13.515625 4.140625 C-14.33546875 4.09421875 -15.1553125 4.0478125 -16 4 C-11.47217435 -0.83919475 -6.26422575 -0.10617332 0 0 Z " fill="#F2F2F2" transform="translate(214,346)"/>
<path d="M0 0 C0.66 0.33 1.32 0.66 2 1 C2 2.98 2 4.96 2 7 C-0.31 7 -2.62 7 -5 7 C-5 6.01 -5 5.02 -5 4 C-2.5 1.8125 -2.5 1.8125 0 0 Z " fill="#E9E9E9" transform="translate(238,158)"/>
<path d="M0 0 C2.94956528 1.36944102 5.52468811 2.87830409 8 5 C8 5.66 8 6.32 8 7 C5.36 7 2.72 7 0 7 C0 4.69 0 2.38 0 0 Z " fill="#F8F8F8" transform="translate(60,308)"/>
<path d="M0 0 C0.33 0 0.66 0 1 0 C1.36388175 3.12394934 1.71444603 6.24925082 2.0625 9.375 C2.16626953 10.26445312 2.27003906 11.15390625 2.37695312 12.0703125 C2.47041016 12.92109375 2.56386719 13.771875 2.66015625 14.6484375 C2.74918213 15.43395996 2.83820801 16.21948242 2.92993164 17.02880859 C3 19 3 19 2 21 C1.34 21 0.68 21 0 21 C0 14.07 0 7.14 0 0 Z " fill="#DFDFDF" transform="translate(0,189)"/>
<path d="M0 0 C2.97 0 5.94 0 9 0 C9 1.65 9 3.3 9 5 C8.01 5.495 8.01 5.495 7 6 C4.5249829 4.88568235 2.32116581 3.41849022 0 2 C0 1.34 0 0.68 0 0 Z " fill="#E7E7E7" transform="translate(246,15)"/>
<path d="M0 0 C2.99220268 1.36370299 5.29026529 2.94908083 7.75 5.125 C8.67039063 5.93324219 8.67039063 5.93324219 9.609375 6.7578125 C10.06828125 7.16773438 10.5271875 7.57765625 11 8 C10.34 8.66 9.68 9.32 9 10 C8.62875 9.525625 8.2575 9.05125 7.875 8.5625 C5.37353038 6.47794198 3.18406582 6.35378509 0 6 C0 4.02 0 2.04 0 0 Z " fill="#F4F4F4" transform="translate(225,204)"/>
<path d="M0 0 C0 3 0 3 -1.4375 4.5 C-1.953125 4.995 -2.46875 5.49 -3 6 C-3.33 6.99 -3.66 7.98 -4 9 C-5.64333504 10.03789581 -7.31243867 11.03567924 -9 12 C-10.75149165 13.58245275 -10.75149165 13.58245275 -12 15 C-12.66 14.67 -13.32 14.34 -14 14 C-9.38 9.38 -4.76 4.76 0 0 Z " fill="#FCFCFC" transform="translate(304,291)"/>
<path d="M0 0 C0.66 0.33 1.32 0.66 2 1 C1.525625 1.37125 1.05125 1.7425 0.5625 2.125 C-1.52205802 4.62646962 -1.64621491 6.81593418 -2 10 C-3.65 10 -5.3 10 -7 10 C-5.15083921 5.93184627 -3.33557632 2.9905167 0 0 Z " fill="#E7E7E7" transform="translate(257,140)"/>
<path d="M0 0 C0.43570313 0.37511719 0.87140625 0.75023438 1.3203125 1.13671875 C5.18607599 4.45859777 9.07657648 7.74642927 13 11 C12.34 11.66 11.68 12.32 11 13 C9.5 11.625 9.5 11.625 8 10 C8 9.34 8 8.68 8 8 C7.4225 7.731875 6.845 7.46375 6.25 7.1875 C3.92636635 5.9611378 1.96175354 4.75156566 0 3 C0 2.01 0 1.02 0 0 Z " fill="#E9E9E9" transform="translate(75,122)"/>
<path d="M0 0 C0 2.64 0 5.28 0 8 C-1.65 8 -3.3 8 -5 8 C-4.40138258 5.64828869 -3.73075648 3.3140622 -3 1 C-1 0 -1 0 0 0 Z " fill="#F7F7F7" transform="translate(30,112)"/>
<path d="M0 0 C4.55384615 -0.36923077 4.55384615 -0.36923077 6.8125 1.5 C7.204375 1.995 7.59625 2.49 8 3 C7 4 7 4 3.4375 4.0625 C2.303125 4.041875 1.16875 4.02125 0 4 C0 2.68 0 1.36 0 0 Z " fill="#EEEEEE" transform="translate(255,41)"/>
<path d="M0 0 C-0.66 0 -1.32 0 -2 0 C-2 0.99 -2 1.98 -2 3 C-4.64 3 -7.28 3 -10 3 C-6.81859267 -0.48439851 -4.56758339 -1.41752588 0 0 Z " fill="#F8F8F8" transform="translate(122,27)"/>
<path d="M0 0 C2.31 0 4.62 0 7 0 C6.67 0.99 6.34 1.98 6 3 C4.02 3.33 2.04 3.66 0 4 C0 2.68 0 1.36 0 0 Z " fill="#F0F0F0" transform="translate(240,315)"/>
<path d="M0 0 C0 1.65 0 3.3 0 5 C-2.31 5.66 -4.62 6.32 -7 7 C-3.13157895 0 -3.13157895 0 0 0 Z " fill="#F3F3F3" transform="translate(315,280)"/>
<path d="M0 0 C2.99220268 1.36370299 5.29026529 2.94908083 7.75 5.125 C8.67039063 5.93324219 8.67039063 5.93324219 9.609375 6.7578125 C10.06828125 7.16773438 10.5271875 7.57765625 11 8 C10.34 8.66 9.68 9.32 9 10 C7.49702124 8.52386015 5.99768715 7.04400843 4.5 5.5625 C3.6646875 4.73878906 2.829375 3.91507813 1.96875 3.06640625 C0 1 0 1 0 0 Z " fill="#F4F4F4" transform="translate(220,177)"/>
<path d="M0 0 C0.33 0 0.66 0 1 0 C1 1.98 1 3.96 1 6 C-0.98 6 -2.96 6 -5 6 C-3.35830472 3.97945196 -1.69088222 1.97956942 0 0 Z " fill="#EEEEEE" transform="translate(74,54)"/>
<path d="M0 0 C5.01113235 1.4317521 6.94469549 3.98445693 10 8 C7 8 7 8 5.17578125 6.50390625 C4.56089844 5.86324219 3.94601563 5.22257813 3.3125 4.5625 C2.68988281 3.92441406 2.06726563 3.28632813 1.42578125 2.62890625 C0 1 0 1 0 0 Z " fill="#F3F3F3" transform="translate(145,163)"/>
<path d="M0 0 C2.64 0.33 5.28 0.66 8 1 C7.67 1.66 7.34 2.32 7 3 C4.69 3 2.38 3 0 3 C0 2.01 0 1.02 0 0 Z " fill="#F9F9F9" transform="translate(120,342)"/>
<path d="M0 0 C0.99 0.33 1.98 0.66 3 1 C3 1.99 3 2.98 3 4 C1.35 3.67 -0.3 3.34 -2 3 C-1.34 2.01 -0.68 1.02 0 0 Z " fill="#E7E7E7" transform="translate(267,131)"/>
<path d="M0 0 C0.33 0 0.66 0 1 0 C1 1.65 1 3.3 1 5 C-0.98 5.66 -2.96 6.32 -5 7 C-4.34 5.35 -3.68 3.7 -3 2 C-2.01 2 -1.02 2 0 2 C0 1.34 0 0.68 0 0 Z " fill="#E8E8E8" transform="translate(44,85)"/>
<path d="M0 0 C0.99 0.33 1.98 0.66 3 1 C1.37660195 2.70884005 -0.29319053 4.37446717 -2 6 C-2.66 6 -3.32 6 -4 6 C-2.84826645 3.53199953 -1.95216435 1.95216435 0 0 Z " fill="#F5F5F5" transform="translate(110,219)"/>
<path d="M0 0 C3.76488042 1.72154788 6.15063897 3.99234114 9 7 C6 7 6 7 4.39453125 5.46875 C3.87246094 4.8190625 3.35039062 4.169375 2.8125 3.5 C2.28269531 2.8503125 1.75289062 2.200625 1.20703125 1.53125 C0.80871094 1.0259375 0.41039062 0.520625 0 0 Z " fill="#F2F2F2" transform="translate(157,174)"/>
<path d="M0 0 C3.76488042 1.72154788 6.15063897 3.99234114 9 7 C6 7 6 7 4.39453125 5.46875 C3.87246094 4.8190625 3.35039063 4.169375 2.8125 3.5 C2.28269531 2.8503125 1.75289063 2.200625 1.20703125 1.53125 C0.80871094 1.0259375 0.41039063 0.520625 0 0 Z " fill="#F3F3F3" transform="translate(122,142)"/>
</svg>
