<?xml version="1.0" encoding="UTF-8"?>
<svg version="1.1" xmlns="http://www.w3.org/2000/svg" width="225" height="225">
<path d="M0 0 C74.25 0 148.5 0 225 0 C225 74.25 225 148.5 225 225 C150.75 225 76.5 225 0 225 C0 150.75 0 76.5 0 0 Z " fill="#FEFEFE" transform="translate(0,0)"/>
<path d="M0 0 C9.50306033 7.16924294 17.00519229 16.69799096 19.46484375 28.56640625 C21.25136213 42.63829761 17.90719326 54.30614949 9.75 65.8125 C6.57868121 69.47871 3.24837478 72.93373795 -0.19970703 76.33862305 C-1.76369019 77.8885673 -3.3019032 79.46136661 -4.83984375 81.03710938 C-5.83969467 82.03791023 -6.84094781 83.03731259 -7.84375 84.03515625 C-8.73771484 84.92984619 -9.63167969 85.82453613 -10.55273438 86.74633789 C-13.58607821 89.06994297 -15.45709794 89.66720207 -19.25 89.8125 C-21.625 88.3125 -21.625 88.3125 -23.25 85.8125 C-23.71020485 81.73520994 -23.82724495 79.61809637 -21.40161133 76.23291016 C-20.5536499 75.44706543 -19.70568848 74.6612207 -18.83203125 73.8515625 C-17.44467773 72.52511719 -17.44467773 72.52511719 -16.02929688 71.171875 C-15.04173944 70.25892721 -14.05279653 69.34747591 -13.0625 68.4375 C-3.26003252 59.29994132 4.44919049 50.99579686 5.125 37 C4.90272684 28.38364632 1.39588271 21.68081452 -4.4609375 15.5 C-12.06590571 8.32675488 -19.6495526 7.23956288 -29.76171875 7.453125 C-45.71548389 9.09673798 -59.15829266 27.48463772 -69.92480469 38.19213867 C-71.39791707 39.65364531 -72.87550739 41.11065155 -74.35742188 42.56323242 C-89.92856913 57.14699219 -89.92856913 57.14699219 -95.5625 76.9375 C-95.47721449 85.39971773 -93.29363484 91.48274502 -87.9375 98 C-85.48396458 101.04683366 -85.25 101.52054616 -85.25 105.6875 C-86.25 108.8125 -86.25 108.8125 -88.25 110.8125 C-92.37828953 111.35774579 -94.44125169 111.42399263 -97.8125 108.875 C-107.41584166 96.80926305 -111.86763434 85.50522075 -110.25 69.8125 C-107.47308331 56.05936822 -98.52585819 46.6154573 -88.85546875 36.984375 C-87.85773855 35.98206783 -86.86037563 34.97939492 -85.86335754 33.97637939 C-83.78651613 31.89067454 -81.70419986 29.8106371 -79.61791992 27.734375 C-76.96694835 25.09490594 -74.33220078 22.43987915 -71.70159435 19.78013229 C-69.65041578 17.71046882 -67.58985323 15.65034558 -65.52657509 13.59275055 C-64.55203964 12.6183667 -63.58052818 11.64094717 -62.61235619 10.66024017 C-45.2562292 -6.88891164 -22.1786852 -14.49366966 0 0 Z " fill="#333333" transform="translate(191.25,20.1875)"/>
<path d="M0 0 C4.94335665 1.06621418 7.24704626 3.66739802 10.1875 7.6875 C17.20153658 19.97252232 20.52629884 31.35693114 17.31640625 45.53515625 C13.19859077 57.94260683 4.92844704 66.28064071 -4.13671875 75.41796875 C-4.86586959 76.15560172 -4.86586959 76.15560172 -5.60975075 76.90813637 C-8.17939241 79.50751022 -10.75453589 82.10127413 -13.3347168 84.69018555 C-15.9694221 87.33586329 -18.58503198 89.9996061 -21.19664288 92.66805553 C-23.23616321 94.74515761 -25.28930423 96.80839779 -27.34617043 98.86831093 C-28.31544517 99.8435595 -29.27981603 100.8237119 -30.2386837 101.80919456 C-39.43671556 111.24423191 -50.55519632 118.79453402 -64.13110352 119.06811523 C-78.6600724 119.03274249 -88.25918174 115.7367553 -98.93359375 105.69140625 C-108.74018373 95.58820863 -112.24496509 83.62772261 -112.08984375 69.8046875 C-110.83982139 55.75514043 -101.51263361 44.65705366 -91.91772461 35.10644531 C-90.36103705 33.54852601 -88.83615915 31.9632953 -87.31054688 30.375 C-86.31429171 29.37061545 -85.31630467 28.36794513 -84.31640625 27.3671875 C-83.42767822 26.46726074 -82.5389502 25.56733398 -81.62329102 24.64013672 C-78.10027714 22.1927238 -76.01775413 22.22696781 -71.8125 22.6875 C-69.875 23.75 -69.875 23.75 -68.8125 25.6875 C-68.15433537 28.64731636 -67.95706549 29.8538937 -68.8125 32.6875 C-71.65638464 36.35716678 -75.03047347 39.42083298 -78.4375 42.5625 C-88.02896005 51.55192832 -96.62686408 59.68440017 -97.1875 73.4375 C-97.07357712 79.56655086 -95.65639684 84.29066607 -92.8125 89.6875 C-92.47347656 90.33589844 -92.13445312 90.98429687 -91.78515625 91.65234375 C-88.01604175 97.78218476 -81.52495573 101.45001476 -74.8125 103.6875 C-72.31222869 103.91637767 -69.87943615 104.05654699 -67.375 104.125 C-66.40143555 104.19364258 -66.40143555 104.19364258 -65.40820312 104.26367188 C-56.24049725 104.46661435 -48.10433554 99.22737938 -41.58227539 93.18603516 C-39.8425104 91.46529947 -38.11895816 89.72805031 -36.41015625 87.9765625 C-35.48456406 87.04959564 -34.55897186 86.12262878 -33.60533142 85.16757202 C-31.66416673 83.22176093 -29.73335098 81.26644875 -27.81030273 79.30273438 C-25.36260538 76.80389446 -22.8954429 74.32543971 -20.42092228 71.85318947 C-18.03388888 69.46513846 -15.65976303 67.06447301 -13.28515625 64.6640625 C-12.40803482 63.7836026 -11.53091339 62.9031427 -10.62721252 61.9960022 C-2.10881435 53.27920799 3.06946917 45.8598244 3.625 33.375 C3.49533681 25.31735911 0.73979061 19.36942562 -4.625 13.4375 C-6.8125 10.6875 -6.8125 10.6875 -7.375 7.5625 C-6.46518755 2.91234748 -4.57734577 1.11890674 0 0 Z " fill="#323232" transform="translate(125.8125,90.3125)"/>
</svg>
