<?xml version="1.0" encoding="UTF-8"?>
<svg version="1.1" xmlns="http://www.w3.org/2000/svg" width="225" height="225">
<path d="M0 0 C74.25 0 148.5 0 225 0 C225 74.25 225 148.5 225 225 C150.75 225 76.5 225 0 225 C0 150.75 0 76.5 0 0 Z " fill="#040404" transform="translate(0,0)"/>
<path d="M0 0 C35.97 0 71.94 0 109 0 C109 63.36 109 126.72 109 192 C107 189 107 189 105.84375 186.73046875 C101.20150653 177.94529289 95.00627982 174.56164672 86 171 C85.9845388 169.87580406 85.9845388 169.87580406 85.96876526 168.72889709 C85.87095475 161.68009546 85.76846424 154.63138126 85.66066074 147.58272648 C85.60539903 143.9585842 85.551974 140.3344339 85.50268555 136.71020508 C85.45508968 133.21532901 85.4027489 129.7205538 85.34705925 126.22579765 C85.31663587 124.23766177 85.29118018 122.24945191 85.26576233 120.26124573 C85.2358445 118.45949135 85.2358445 118.45949135 85.20532227 116.62133789 C85.18200584 115.02582848 85.18200584 115.02582848 85.15821838 113.39808655 C85.26771448 111.04804072 85.26771448 111.04804072 84 110 C81.38399547 109.87492518 78.79308066 109.81394595 76.17553711 109.79467773 C75.35609116 109.78477814 74.5366452 109.77487854 73.69236755 109.76467896 C70.97072283 109.73296945 68.24906061 109.70826938 65.52734375 109.68359375 C63.64546747 109.66303237 61.76359589 109.64203612 59.88172913 109.62062073 C54.91856689 109.56531574 49.9553624 109.51594377 44.99212646 109.46777344 C39.04247139 109.40880829 33.09289386 109.34253415 27.14330292 109.27747345 C18.09558247 109.17935797 9.04781325 109.09057449 0 109 C0 90.85 0 72.7 0 54 C5.94 51.525 5.94 51.525 12 49 C18.1098777 43.13782005 21.47643959 39.00964641 22.37109375 30.44921875 C22.53631601 21.08986376 21.6195596 15.31132106 15.4609375 8.23046875 C10.99672658 3.88262352 5.98036878 2.37175461 0 1 C0 0.67 0 0.34 0 0 Z " fill="#FDFDFD" transform="translate(116,0)"/>
<path d="M0 0 C35.64 0 71.28 0 108 0 C104 2 104 2 102.0703125 2.82421875 C94.53088182 6.17003036 90.18775026 11.42451304 87 19 C85.98102852 27.34455019 85.94795527 35.96424279 91 43 C96.39940671 49.23295567 100.88630772 50.75452309 109 54 C109 72.15 109 90.3 109 109 C102.94785156 109.06058594 96.89570312 109.12117188 90.66015625 109.18359375 C86.83658104 109.22406656 83.01301335 109.26482876 79.18945312 109.30664062 C73.11436447 109.37304589 67.03927738 109.43835237 60.96411133 109.49731445 C56.06874337 109.54489291 51.17344779 109.59723308 46.27816582 109.65294075 C44.40619129 109.67339395 42.5341969 109.69210201 40.66218758 109.70907402 C38.04953924 109.73305268 35.43702903 109.76311574 32.82446289 109.79467773 C32.04259613 109.8004332 31.26072937 109.80618866 30.45516968 109.81211853 C26.93323772 109.54093426 26.93323772 109.54093426 24 111 C23.87655973 112.87096111 23.82207606 114.74650928 23.79467773 116.62133789 C23.77473251 117.82250748 23.75478729 119.02367706 23.73423767 120.26124573 C23.71752518 121.5685112 23.70081268 122.87577667 23.68359375 124.22265625 C23.66303042 125.56644847 23.64203412 126.91023412 23.62062073 128.25401306 C23.56533581 131.79674987 23.51595502 135.33954567 23.46777344 138.88238525 C23.41760513 142.4952115 23.36189475 146.10795172 23.30664062 149.72070312 C23.19898063 156.81372747 23.0975532 163.90682888 23 171 C22.39309326 171.26554688 21.78618652 171.53109375 21.16088867 171.8046875 C19.95783081 172.33449219 19.95783081 172.33449219 18.73046875 172.875 C17.93793701 173.22304687 17.14540527 173.57109375 16.32885742 173.9296875 C7.65780598 177.91478966 4.78911835 183.29751939 1 192 C0.67 192 0.34 192 0 192 C0 128.64 0 65.28 0 0 Z " fill="#FDFDFD" transform="translate(0,0)"/>
<path d="M0 0 C25.74 0 51.48 0 78 0 C78 18.15 78 36.3 78 55 C74.04 56.65 70.08 58.3 66 60 C59.01882377 66.7924958 55.73650715 71.31003512 55.5625 81.1875 C55.57694977 89.085745 57.41662317 94.82087566 62.57421875 100.8359375 C66.7777093 104.85325947 71.43567011 106.5616018 77 108 C77 108.33 77 108.66 77 109 C50.93 109 24.86 109 -2 109 C-2 108.67 -2 108.34 -2 108 C-0.0509375 107.690625 -0.0509375 107.690625 1.9375 107.375 C8.31487241 105.91874961 13.7329967 103.11443072 17.640625 97.74609375 C21.9278011 90.26817452 23.17553258 83.13667856 21.5390625 74.59375 C19.61833872 67.99549891 16.44167202 63.0692919 10.4921875 59.4921875 C7.04969875 57.73581569 3.66722953 56.22240984 0 55 C0 36.85 0 18.7 0 0 Z " fill="#FCFCFC" transform="translate(31,116)"/>
<path d="M0 0 C25.74 0 51.48 0 78 0 C78 18.15 78 36.3 78 55 C74.7 56.32 71.4 57.64 68 59 C61.89386879 63.20422149 58.25599224 67.87106451 56 75 C54.78185028 83.89829367 56.30143458 91.56042463 60.9375 99.1875 C64.85719689 103.5332509 70.76334191 105.64475665 76 108 C76 108.33 76 108.66 76 109 C50.92 109 25.84 109 0 109 C0 108.67 0 108.34 0 108 C0.6290625 107.86464844 1.258125 107.72929687 1.90625 107.58984375 C9.57415292 105.66131997 14.74118223 102.54761575 19.3828125 96.0703125 C23.06532153 89.24608248 22.93253094 81.53386841 22 74 C19.85541041 67.3100192 15.64617546 62.9800909 10 59 C5.05 57.02 5.05 57.02 0 55 C0 36.85 0 18.7 0 0 Z " fill="#FCFCFC" transform="translate(116,116)"/>
<path d="M0 0 C4.41571622 2.75681739 7.51066961 6.41872759 9.15234375 11.34375 C10.04292842 18.85171696 9.6495396 24.43216667 4.90625 30.49609375 C0.37559058 35.2689265 -3.23255007 36.57155735 -9.84765625 36.84375 C-15.11981097 36.63338971 -18.91146638 35.95861825 -22.84765625 32.34375 C-27.2547337 27.45590047 -29.52833362 23.66470532 -30.16015625 17.09375 C-29.6282883 10.71133465 -27.16832833 6.23863805 -22.41015625 1.96875 C-15.12659824 -3.72201295 -8.2788805 -3.96254109 0 0 Z " fill="#F9F9F9" transform="translate(207.84765625,180.65625)"/>
<path d="M0 0 C5.90690486 2.74249154 10.47614737 7.96955567 13 14 C13.84146792 19.75329229 13.38273069 25.10132025 10.44921875 30.17578125 C6.49302764 35.1556768 1.3116416 38.12465387 -4.9375 39.1875 C-10.77379663 39.43295173 -15.32970451 37.39507296 -20 34 C-25.0100317 28.73716854 -26.37620137 23.63265448 -26.2734375 16.5625 C-25.5713167 9.98262511 -21.51486157 6.18899176 -16.5859375 2.1640625 C-11.79620099 -1.35155691 -5.6815693 -0.49194076 0 0 Z " fill="#F9F9F9" transform="translate(119,8)"/>
<path d="M0 0 C5.35479449 3.26252379 8.83126071 6.74107594 10.484375 12.875 C11.53648189 19.22810697 10.73198215 23.85776156 6.984375 29.1171875 C3.28517025 33.45219307 -0.33713395 36.5952194 -6.22265625 37.11328125 C-12.51226741 37.263599 -16.68121714 37.3556707 -21.515625 32.875 C-25.7857891 28.40149475 -28.79010845 24.43743944 -28.890625 18.125 C-28.74578503 12.94125386 -27.81599106 8.95243637 -24.515625 4.875 C-16.908012 -1.42805842 -9.45908426 -4.23014948 0 0 Z " fill="#F9F9F9" transform="translate(121.515625,180.125)"/>
<path d="M0 0 C5.45701514 4.69557117 9.21506281 9.21804432 10.0625 16.5625 C9.44868589 22.70064107 7.45439316 28.14853609 2.6875 32.25 C-3.61468461 36.58275192 -8.66821297 37.39631987 -16.3125 36.3125 C-21.54812297 34.13936846 -26.22893041 30.62443234 -28.71875 25.42578125 C-30.24441139 19.99563116 -30.40681181 14.2564893 -28.4296875 8.9375 C-25.47588094 3.77322893 -21.11218368 -0.41316846 -15.40234375 -2.328125 C-10.03107693 -3.2517821 -4.81851406 -2.45471471 0 0 Z " fill="#F8F8F8" transform="translate(37.3125,180.6875)"/>
<path d="M0 0 C0.33 0 0.66 0 1 0 C1 7.59 1 15.18 1 23 C-6.92 23 -14.84 23 -23 23 C-23 22.67 -23 22.34 -23 22 C-22.3709375 21.86464844 -21.741875 21.72929687 -21.09375 21.58984375 C-13.54378028 19.69098088 -7.94591046 16.57683481 -3.65234375 9.90625 C-1.96510486 6.66481614 -0.81390281 3.56378803 0 0 Z " fill="#F5F5F5" transform="translate(224,202)"/>
<path d="M0 0 C0.33 0 0.66 0 1 0 C1.20302734 0.94359375 1.20302734 0.94359375 1.41015625 1.90625 C3.39158489 9.78450518 6.5864769 15.35574636 13.6796875 19.60546875 C16.09183007 20.82520656 18.50713984 21.95671044 21 23 C21 23.33 21 23.66 21 24 C14.07 24 7.14 24 0 24 C0 16.08 0 8.16 0 0 Z " fill="#F6F6F6" transform="translate(0,201)"/>
<path d="M0 0 C-0.33 0.99 -0.66 1.98 -1 3 C-2.258125 3.37125 -3.51625 3.7425 -4.8125 4.125 C-7.68604356 5.06909061 -8.75215978 5.6169742 -10.41796875 8.19140625 C-11.39197812 10.43830872 -12.25666165 12.66728689 -13 15 C-13.66 15 -14.32 15 -15 15 C-15.48338369 7.87009063 -15.48338369 7.87009063 -13.4375 4.1875 C-9.6278454 0.76857921 -5.11249791 -2.24949908 0 0 Z " fill="#111111" transform="translate(200,185)"/>
<path d="M0 0 C0 0.99 0 1.98 0 3 C-1.6396875 3.37125 -1.6396875 3.37125 -3.3125 3.75 C-7.17561172 5.0595294 -8.1529093 5.5002492 -10 9 C-10.72351427 10.98014432 -11.40265389 12.97821315 -12 15 C-12.99 14.67 -13.98 14.34 -15 14 C-14.63074596 7.84576594 -13.17122773 5.27296499 -9 1 C-6.04335481 -0.4783226 -3.25770263 -0.06032783 0 0 Z " fill="#0A0A0A" transform="translate(114,185)"/>
<path d="M0 0 C0 0.99 0 1.98 0 3 C-0.83144531 3.27263672 -0.83144531 3.27263672 -1.6796875 3.55078125 C-2.40414062 3.80214844 -3.12859375 4.05351562 -3.875 4.3125 C-4.95394531 4.67794922 -4.95394531 4.67794922 -6.0546875 5.05078125 C-9.24257819 6.60631827 -9.98503091 8.95758757 -11.125 12.1875 C-11.41375 13.115625 -11.7025 14.04375 -12 15 C-12.99 14.67 -13.98 14.34 -15 14 C-14.58675744 8.7311573 -13.77055562 5.77055562 -10 2 C-6.73040093 -0.28871935 -3.92026737 -0.17819397 0 0 Z " fill="#090909" transform="translate(114,14)"/>
<path d="M0 0 C-0.33 0.99 -0.66 1.98 -1 3 C-2.11375 3.474375 -3.2275 3.94875 -4.375 4.4375 C-7.95658019 5.98128457 -9.18174197 6.66652695 -11 10 C-11.70514846 12.14733927 -11.70514846 12.14733927 -12 14 C-12.99 14 -13.98 14 -15 14 C-15.32494469 9.34245939 -14.90547505 6.70698541 -12 3 C-8.04820644 -0.18338925 -4.98469052 -0.29321709 0 0 Z " fill="#060606" transform="translate(29,185)"/>
</svg>
