<?xml version="1.0" encoding="UTF-8"?>
<svg version="1.1" xmlns="http://www.w3.org/2000/svg" width="225" height="225">
<path d="M0 0 C1.13501953 1.01320313 1.13501953 1.01320313 2.29296875 2.046875 C17.60425153 16.488498 28.84577605 37.65022724 30.17700195 58.81396484 C30.7139787 84.19948704 26.28818968 103.56771547 12 125 C31.8 144.8 51.6 164.6 72 185 C70.35412625 188.2917475 69.4470074 189.79705157 66.9609375 192.234375 C66.09082031 193.09482422 66.09082031 193.09482422 65.203125 193.97265625 C64.59984375 194.55917969 63.9965625 195.14570313 63.375 195.75 C62.76398438 196.35199219 62.15296875 196.95398438 61.5234375 197.57421875 C60.02011376 199.05405305 58.51065144 200.52764676 57 202 C52.98392418 200.39754709 50.33211056 197.56660133 47.37695312 194.5246582 C46.82684067 193.96680634 46.27672821 193.40895447 45.70994568 192.834198 C44.51887926 191.6255083 43.33003512 190.41462557 42.14317322 189.20180702 C40.26565157 187.28485523 38.38068888 185.37552834 36.49328613 183.4683075 C31.12906864 178.04603936 25.77472196 172.61417803 20.43505859 167.16772461 C17.16670505 163.83507999 13.88639493 160.51461394 10.59812927 157.2016201 C9.34630494 155.93550189 8.09917857 154.66472128 6.85682678 153.38930702 C5.12344715 151.61042531 3.37535202 149.84737084 1.62304688 148.0871582 C1.11072006 147.55371292 0.59839325 147.02026764 0.07054138 146.47065735 C-1.50460393 144.8503482 -1.50460393 144.8503482 -4 143 C-7.93536688 143.1411797 -11.1831075 145.7553177 -14.5 147.75 C-29.14761813 156.29492128 -43.58274054 160.59534131 -60.625 160.5 C-62.45369629 160.49033203 -62.45369629 160.49033203 -64.31933594 160.48046875 C-89.42565729 159.97741565 -111.27098741 149.38718496 -128.79296875 131.5546875 C-146.641649 112.81591558 -153.56845467 89.40237674 -153.2109375 63.984375 C-152.46819244 40.27155121 -142.70365063 19.7320582 -126 3 C-125.24203125 2.23042969 -124.4840625 1.46085937 -123.703125 0.66796875 C-90.25286951 -31.41585473 -33.93979521 -30.71580775 0 0 Z M-112.3203125 21.87890625 C-125.230118 38.18128854 -131.57087176 56.09523108 -129.52734375 77.0546875 C-127.05516128 95.55027484 -118.09432397 110.73308438 -103.8125 122.6875 C-89.12122733 133.55185024 -72.16366002 138.26467461 -54 137 C-34.09729502 133.87214747 -17.94420007 124.59347255 -5.625 108.625 C4.92381342 93.16364145 9.56730087 75.28201238 6.30859375 56.6953125 C3.72501383 43.83613065 -1.28167039 32.90550641 -10 23 C-10.60585937 22.31164062 -11.21171875 21.62328125 -11.8359375 20.9140625 C-24.66815244 7.24382536 -42.97685864 0.43959321 -61.5 -0.375 C-80.4493283 0.45833566 -99.25710173 7.80833345 -112.3203125 21.87890625 Z " fill="#080808" transform="translate(153,23)"/>
</svg>
